<svg xmlns="http://www.w3.org/2000/svg" version="1.1" xmlns:xlink="http://www.w3.org/1999/xlink"
  xmlns:svgjs="http://svgjs.dev/svgjs" viewBox="0 0 800 800">
  <g stroke-width="3.5" stroke="#8aeaf8" fill="none" stroke-linecap="round">
    <path
      d="M391.54 -288.51C400.25 -288.38 417.42 -287.79 425.87 -287.34 434.25 -286.85 450.73 -285.55 458.82 -284.76 469.55 -283.67 480.04 -282.32 490.28 -280.7 500.5 -279.08 510.48 -277.16 520.22 -274.96 529.96 -272.72 539.48 -270.17 548.8 -267.31 558.14 -264.42 567.33 -261.23 576.37 -257.75 585.51 -254.25 594.57 -250.48 603.59 -246.46 612.79 -242.46 622.04 -238.24 631.39 -233.82 641.02 -229.46 650.85 -224.91 660.92 -220.2 671.39 -215.57 682.2 -210.78 693.4 -205.82 705.06 -200.93 717.17 -195.86 729.74 -190.61 742.79 -185.39 756.28 -179.95 770.2 -174.28 784.48 -168.58 799.07 -162.61 813.89 -156.37 828.8 -150.05 843.72 -143.41 858.48 -136.48 872.95 -129.41 886.95 -122.02 900.29 -114.32 912.86 -106.48 924.44 -98.33 934.82 -89.89 944.03 -81.32 951.79 -72.49 957.98 -63.41 962.81 -54.24 966.02 -44.86 967.62 -35.29 968.05 -25.69 967.12 -15.93 965.02 -6.04 962.37 3.82 959.1 13.8 955.53 23.86 952.39 33.86 949.68 43.92 947.77 54.03 947.34 64.05 948.35 74.12 951.1 84.23 956.01 94.23 962.94 104.27 971.91 114.35 982.99 124.32 995.83 134.35 1010.13 144.43 1025.61 154.41 1041.69 164.46 1057.83 174.59 1073.55 184.62 1088.18 194.76 1101.12 204.99 1112.02 215.15 1120.29 225.42 1125.55 235.82 1127.9 246.16 1127 256.64 1122.94 267.26 1116.36 277.84 1107.31 288.57 1096.34 299.46 1084.5 310.32 1072.14 321.35 1060.04 332.55 1054.47 338.14 1049.24 343.78 1044.44 349.46 1040.24 355.14 1036.62 360.87 1033.65 366.64 1031.46 372.41 1030.01 378.22 1029.33 384.09 1029.52 389.95 1030.51 395.86 1032.28 401.83 1034.89 407.79 1038.21 413.77 1042.19 419.76 1046.84 425.75 1052.01 431.76 1057.61 437.79 1063.64 443.81 1069.93 449.86 1076.36 455.92 1082.93 461.98 1089.46 468.06 1095.83 474.15 1108.02 486.36 1118.48 498.63 1126.6 510.96 1132.24 523.32 1134.68 535.73 1133.78 548.2 1129.81 560.69 1122.65 573.23 1112.63 585.8 1100.37 598.37 1086.21 610.96 1070.75 623.54 1054.76 636.1 1038.72 648.62 1023.23 661.07 1008.92 673.45 996.13 685.71 985.18 697.81 976.46 709.78 969.94 721.53 965.59 733 963.54 744.25 963.36 755.15 964.74 765.65 967.68 775.84 971.46 785.54 975.65 794.71 980.24 803.49 984.45 811.67 987.91 819.21 991.37 829.55 988.76 846.25 981.99 852.67 975.34 856.45 966.98 859.7 957.08 862.49 945.92 865.21 933.53 867.63 920.15 869.88 906.03 872.36 891.33 874.9 876.27 877.61 861.04 880.92 845.81 884.65 830.75 888.94 815.97 894.12 801.59 900.05 787.71 906.81 774.38 914.63 761.64 923.35 749.5 932.97 737.99 943.59 727.07 954.99 716.68 967.08 706.87 979.81 697.5 992.92 688.49 1006.19 679.93 1019.51 671.62 1032.55 663.46 1045.03 655.6 1056.84 647.78 1067.61 639.93 1077.08 632.23 1085.25 624.42 1091.76 616.42 1096.45 608.49 1099.51 600.31 1100.67 591.86 1099.93 583.41 1097.72 574.65 1093.89 565.58 1088.63 556.47 1082.57 547.04 1075.67 537.28 1068.26 527.47 1061.08 517.35 1054.12 506.93 1047.76 496.45 1042.67 485.69 1038.79 474.65 1036.4 466.31 1035.9 449.32 1037.85 440.66 1040.31 434.86 1042.58 429.01 1045.26 423.1 1048.33 417.18 1051.82 411.22 1055.63 405.2 1059.73 399.18 1064.14 393.14 1068.72 387.1 1073.42 381.05 1078.28 375 1083.16 368.93 1087.99 362.87 1092.83 356.81 1097.52 350.74 1102.02 344.67 1106.36 338.61 1110.41 332.54 1114.12 320.43 1120.64 308.33 1125.36 296.27 1128.08 284.24 1128.99 272.26 1127.68 260.35 1124.2 248.49 1118.9 236.72 1111.65 225.05 1102.7 213.45 1092.51 201.98 1081.15 190.65 1068.98 179.41 1056.47 168.32 1043.78 157.42 1031.24 146.62 1019.28 136.02 1007.98 125.62 997.58 115.33 988.38 105.25 980.34 95.39 973.5 85.64 968.11 76.09 963.9 66.76 960.8 57.49 958.94 48.41 957.94 39.51 957.6 30.63 958.06 21.89 958.8 13.29 959.63 4.63 960.67 -3.93 961.42 -12.42 961.69 -21.02 961.66 -29.57 960.87 -38.09 959.2 -46.74 956.89 -55.35 953.54 -63.92 949.14 -72.6 943.94 -81.2 937.66 -89.69 930.36 -98.21 922.28 -106.54 913.26 -114.64 903.4 -122.65 892.91 -130.34 881.73 -137.65 869.97 -144.75 857.79 -151.41 845.2 -157.59 832.3 -163.51 819.2 -168.93 805.93 -173.88 792.58 -178.62 779.22 -182.96 765.88 -186.94 752.62 -190.9 739.47 -194.67 726.47 -198.32 713.63 -202.2 700.97 -206.15 688.51 -210.25 676.23 -214.78 664.16 -219.58 652.27 -224.65 640.56 -230.22 629.03 -236.04 617.65 -242.04 606.39 -248.37 595.29 -254.68 584.28 -260.85 573.33 -266.95 562.5 -272.62 551.69 -277.68 540.9 -282.26 530.18 -286 519.44 -288.78 508.66 -290.84 497.92 -291.88 487.12 -291.93 476.24 -291.36 465.39 -289.98 454.44 -287.95 443.4 -286.26 435.11 -282.55 418.4 -280.68 409.97 -278.98 401.52 -276.17 384.49 -275.15 375.9 -274.57 367.31 -274.42 350.17 -274.84 341.63 -275.65 333.11 -277.94 316.13 -279.3 307.68 -281.34 296.43 -283.2 285.26 -284.7 274.19 -285.96 263.13 -286.51 252.18 -286.24 241.35 -285.34 230.55 -283.48 219.88 -280.64 209.36 -277.14 198.87 -272.76 188.55 -267.6 178.39 -262.04 168.27 -255.94 158.33 -249.47 148.58 -242.98 138.87 -236.38 129.35 -229.78 120.03 -223.49 110.73 -217.38 101.63 -211.48 92.72 -206.04 83.82 -200.83 75.1 -195.83 66.55 -191.22 57.99 -186.71 49.58 -182.23 41.32 -177.93 33 -173.51 24.81 -168.89 16.74 -164.24 8.57 -159.25 0.49 -153.89 -7.5 -148.35 -15.63 -142.37 -23.7 -135.94 -31.71 -129.29 -39.86 -122.21 -47.97 -114.73 -56.04 -107.08 -64.24 -99.09 -72.39 -90.8 -80.48 -82.45 -88.68 -73.88 -96.79 -65.14 -104.79 -56.44 -112.86 -47.63 -120.79 -38.73 -128.56 -29.94 -136.32 -21.1 -143.88 -12.23 -151.21 -3.48 -158.49 5.31 -165.5 14.14 -172.22 22.87 -178.85 31.67 -185.18 40.54 -191.19 49.36 -197.1 58.29 -202.7 67.34 -207.99 76.39 -213.19 85.6 -218.1 94.96 -222.73 104.37 -227.32 113.96 -231.66 123.74 -235.76 133.59 -239.86 143.63 -243.75 153.85 -247.42 164.17 -251.13 174.66 -254.64 185.33 -257.94 196.08 -261.29 206.99 -264.42 218.04 -267.32 229.17 -270.24 240.42 -272.91 251.78 -275.3 263.2 -277.69 274.71 -279.78 286.29 -281.56 297.91 -283.31 309.57 -284.73 321.27 -285.83 327.13 -286.37 332.99 -286.83 338.85 -287.21 344.72 -287.58 350.58 -287.88 356.44 -288.1 362.31 -288.31 368.17 -288.45 374.01 -288.52 379.87 -288.59 385.7 -288.59 391.53 -288.51"
      stroke-dasharray="9 2" transform="rotate(0, 400, 400)"></path>
    <path
      d="M382.01 -262.58C392.95 -262.61 403.75 -262.35 414.38 -261.81 425.02 -261.27 435.49 -260.45 445.79 -259.35 456.1 -258.24 466.24 -256.85 476.23 -255.18 486.24 -253.47 496.1 -251.47 505.84 -249.18 515.62 -246.86 525.3 -244.24 534.91 -241.34 544.6 -238.41 554.27 -235.2 563.93 -231.74 573.74 -228.28 583.61 -224.58 593.57 -220.66 603.75 -216.78 614.09 -212.7 624.63 -208.45 635.45 -204.27 646.54 -199.94 657.92 -195.45 669.62 -191.06 681.65 -186.52 694.02 -181.83 706.72 -177.22 719.74 -172.46 733.06 -167.52 746.63 -162.63 760.42 -157.54 774.36 -152.24 788.36 -146.93 802.36 -141.37 816.23 -135.56 829.88 -129.67 843.17 -123.5 855.97 -117.04 868.18 -110.46 879.63 -103.57 890.15 -96.37 899.76 -89.03 908.22 -81.39 915.41 -73.44 921.48 -65.35 926.18 -56.98 929.48 -48.34 931.71 -39.59 932.63 -30.6 932.36 -21.38 931.39 -12.1 929.57 -2.63 927.12 7 924.66 16.67 922.12 26.47 919.81 36.4 918.35 46.3 917.72 56.29 918.19 66.37 920.3 76.39 923.95 86.48 929.31 96.62 936.63 106.68 945.72 116.79 956.51 126.95 968.93 137.01 982.61 147.13 997.22 157.29 1012.46 167.36 1027.77 177.49 1042.67 187.68 1056.77 197.78 1069.47 207.96 1080.29 218.21 1089.02 228.39 1095.17 238.66 1098.48 249.02 1099.15 259.33 1096.92 269.75 1091.95 280.28 1084.88 290.77 1075.77 301.39 1065.14 312.14 1053.96 322.86 1042.49 333.72 1031.43 344.74 1021.76 355.73 1013.73 366.89 1007.86 378.2 1004.82 389.51 1004.55 400.99 1007.14 412.64 1012.73 424.29 1020.68 435.98 1030.5 447.71 1041.95 459.45 1054.04 471.22 1066.05 483.03 1077.67 494.85 1087.89 506.7 1096.14 518.58 1102.31 530.45 1105.69 542.34 1106.09 554.23 1103.73 566.11 1098.4 577.98 1090.33 589.81 1080.02 601.61 1067.68 613.35 1053.81 624.99 1039.07 636.57 1023.85 648.03 1008.7 659.32 994.2 670.5 980.69 681.46 968.53 692.18 958.14 702.72 949.57 712.96 942.91 722.85 938.36 732.5 935.64 741.74 934.57 750.53 935.21 759.03 937.01 767.03 939.63 774.49 943.08 781.64 946.69 788.23 950.11 794.25 954.63 802.54 957.45 816.07 954.7 821.51 951.09 824.91 945.92 828.02 939.23 830.89 931.29 833.92 921.99 836.89 911.49 839.92 900.04 843.36 887.67 847.06 874.58 851.12 860.98 855.86 846.96 861.14 832.72 867.05 818.38 873.83 804.07 881.35 789.91 889.63 775.99 898.82 762.38 908.76 749.15 919.4 736.33 930.78 723.96 942.69 712.04 955 700.59 967.66 689.57 980.39 678.96 993 668.78 1005.39 658.93 1017.25 649.37 1028.34 640.15 1038.61 631.13 1047.72 622.24 1055.47 613.59 1061.93 604.99 1066.77 596.39 1069.92 587.93 1071.6 579.41 1071.58 570.77 1069.9 562.2 1067.01 553.47 1062.77 544.55 1057.37 535.65 1051.41 526.53 1044.84 517.19 1037.97 507.84 1031.44 498.24 1025.25 488.41 1019.7 478.55 1015.39 468.44 1012.24 458.1 1010.46 447.74 1010.46 437.14 1012.03 426.32 1015.19 415.48 1020.1 404.43 1026.38 393.19 1033.8 381.94 1042.34 370.64 1051.32 359.3 1060.36 347.98 1069.44 336.65 1077.85 325.31 1085.25 314.01 1091.68 302.72 1096.52 291.47 1099.6 280.27 1101.07 269.12 1100.55 258.05 1098.03 247.04 1093.83 236.13 1087.79 225.32 1080.08 214.6 1071.12 204 1060.93 193.55 1049.8 183.18 1038.16 172.97 1026.13 162.94 1014 152.99 1002.17 143.23 990.73 133.66 979.9 124.16 970 114.85 961.02 105.73 953.04 96.67 946.3 87.78 940.64 79.05 936.02 70.35 932.61 61.79 930.09 53.36 928.34 44.91 927.49 36.55 927.13 28.29 927.08 19.94 927.48 11.66 927.87 3.44 928.08 -4.89 928.28 -13.19 928 -21.44 927.15 -29.81 925.9 -38.12 923.88 -46.35 921.01 -54.65 917.53 -62.84 913.13 -70.87 907.81 -78.89 901.81 -86.7 894.9 -94.24 887.14 -101.68 878.76 -108.8 869.61 -115.54 859.78 -122.1 849.45 -128.26 838.57 -134 827.23 -139.55 815.55 -144.69 803.54 -149.45 791.28 -154.09 778.84 -158.43 766.27 -162.53 753.61 -166.67 740.92 -170.7 728.22 -174.68 715.57 -178.9 702.98 -183.2 690.48 -187.62 678.09 -192.43 665.82 -197.43 653.67 -202.62 641.65 -208.18 629.77 -213.87 618.02 -219.63 606.4 -225.58 594.91 -231.41 583.52 -237 572.23 -242.47 561.05 -247.47 549.94 -251.88 538.89 -255.84 527.93 -259.02 517 -261.35 506.09 -263.08 495.24 -263.94 484.4 -263.95 473.55 -263.48 462.73 -262.33 451.88 -260.63 441.02 -258.82 430.16 -256.77 419.27 -254.63 408.34 -252.85 397.41 -251.27 386.44 -250.01 375.43 -249.42 364.42 -249.27 353.49 -249.53 342.66 -250.43 331.83 -251.59 321.1 -252.9 310.47 -254.51 299.85 -255.96 289.34 -257.12 278.95 -258.13 268.57 -258.56 258.32 -258.3 248.21 -257.56 238.11 -256 228.16 -253.6 218.37 -250.63 208.59 -246.88 198.97 -242.4 189.52 -237.53 180.08 -232.12 170.81 -226.28 161.72 -220.35 152.62 -214.21 143.7 -207.97 134.95 -201.92 126.19 -195.91 117.59 -190.02 109.15 -184.47 100.67 -179.07 92.33 -173.82 84.14 -168.91 75.87 -164.09 67.73 -159.32 59.69 -154.75 51.56 -150.12 43.52 -145.36 35.55 -140.64 27.46 -135.68 19.43 -130.44 11.46 -125.09 3.34 -119.39 -4.72 -113.32 -12.75 -107.08 -20.93 -100.46 -29.06 -93.48 -37.15 -86.34 -45.36 -78.87 -53.5 -71.09 -61.58 -63.24 -69.74 -55.14 -77.79 -46.84 -85.72 -38.54 -93.68 -30.09 -101.49 -21.52 -109.1 -13.04 -116.7 -4.47 -124.07 4.15 -131.19 12.66 -138.24 21.22 -145.01 29.82 -151.49 38.31 -157.87 46.84 -163.93 55.43 -169.68 63.93 -175.32 72.5 -180.65 81.16 -185.66 89.76 -190.59 98.48 -195.23 107.32 -199.59 116.14 -203.9 125.11 -207.96 134.22 -211.77 143.35 -215.59 152.65 -219.19 162.1 -222.58 171.6 -226 181.26 -229.23 191.08 -232.26 200.95 -235.34 210.98 -238.23 221.14 -240.9 231.37 -243.62 241.72 -246.12 252.18 -248.38 262.7 -250.66 273.32 -252.69 284.02 -254.46 294.76 -256.23 305.56 -257.72 316.42 -258.92 327.3 -260.12 338.22 -261.02 349.16 -261.64 360.11 -262.24 371.06 -262.56 382 -262.58"
      stroke-dasharray="1 0" transform="rotate(4.04, 400, 400)"></path>
    <path
      d="M377.62 -236.66C388.01 -236.82 398.32 -236.69 408.56 -236.26 418.79 -235.79 428.96 -235.03 439.04 -233.97 449.15 -232.86 459.19 -231.45 469.17 -229.75 479.19 -227.99 489.18 -225.93 499.16 -223.59 509.19 -221.19 519.24 -218.52 529.33 -215.57 539.51 -212.6 549.78 -209.38 560.14 -205.92 570.65 -202.47 581.3 -198.8 592.12 -194.95 603.12 -191.14 614.33 -187.17 625.75 -183.04 637.39 -178.99 649.26 -174.81 661.37 -170.5 673.68 -166.3 686.22 -161.96 698.96 -157.51 711.83 -153.14 724.85 -148.64 737.94 -144 751.04 -139.41 764.11 -134.65 777.05 -129.7 789.79 -124.77 802.24 -119.61 814.27 -114.23 825.85 -108.79 836.82 -103.1 847.05 -97.13 856.57 -91.07 865.17 -84.71 872.75 -78.06 879.43 -71.28 884.98 -64.19 889.36 -56.81 892.81 -49.28 895.12 -41.46 896.33 -33.37 896.83 -25.14 896.44 -16.65 895.3 -7.92 893.94 0.9 892.21 9.95 890.34 19.2 888.91 28.51 887.83 38 887.35 47.63 888 57.3 889.71 67.09 892.67 76.98 897.25 86.87 903.32 96.85 910.94 106.9 920.22 116.92 930.93 127 942.93 137.14 956.08 147.22 970 157.36 984.36 167.54 998.86 177.66 1013 187.83 1026.35 198.05 1038.62 208.21 1049.3 218.42 1058 228.69 1064.65 238.91 1068.83 249.19 1070.39 259.54 1069.62 269.85 1066.31 280.23 1060.66 290.71 1053.3 301.14 1044.29 311.67 1034.11 322.3 1023.63 332.91 1013.09 343.63 1003.04 354.46 994.38 365.28 987.27 376.22 982.13 387.28 979.58 398.34 979.51 409.53 982 420.85 987.18 432.17 994.48 443.49 1003.48 454.81 1014.01 466.13 1025.19 477.44 1036.4 488.73 1047.42 500.03 1057.31 511.3 1065.57 522.54 1072.11 533.76 1076.24 544.94 1077.76 556.05 1076.83 567.14 1073.18 578.13 1066.94 589.02 1058.54 599.85 1048.07 610.55 1035.92 621.08 1022.65 631.52 1008.57 641.75 994.15 651.76 979.93 661.63 966.22 671.23 953.38 680.51 941.83 689.63 931.7 698.39 923.14 706.77 916.4 714.94 911.33 722.69 907.86 730 906.1 737.08 905.66 743.69 906.29 749.84 909.2 758.49 917.17 773.29 920.59 779.56 922.65 785.43 920.16 796.13 915.02 801.36 910.06 805.16 903.8 809.09 896.3 813.24 887.8 817.92 878.22 822.98 867.71 828.49 856.47 834.7 844.53 841.49 832.05 848.88 819.17 857.06 805.98 865.88 792.61 875.34 779.16 885.51 765.73 896.24 752.4 907.45 739.23 919.14 726.27 931.1 713.59 943.18 701.2 955.35 689.12 967.33 677.37 978.94 665.95 990.13 654.85 1000.6 644.06 1010.15 633.57 1018.8 623.33 1026.24 613.32 1032.32 603.56 1037.16 593.97 1040.49 584.49 1042.27 575.2 1042.76 565.97 1041.76 556.77 1039.35 547.69 1035.97 538.58 1031.49 529.41 1026.1 520.32 1020.37 511.12 1014.22 501.82 1007.94 492.54 1002.1 483.13 996.67 473.57 991.91 464.01 988.34 454.3 985.86 444.41 984.64 434.53 985.04 424.47 986.85 414.26 990.07 404.03 994.87 393.65 1000.86 383.12 1007.88 372.58 1015.89 362.03 1024.3 351.48 1032.77 340.94 1041.32 330.4 1049.3 319.9 1056.41 309.42 1062.7 298.98 1067.61 288.6 1070.96 278.26 1072.91 268 1073.07 257.82 1071.42 247.69 1068.24 237.67 1063.32 227.77 1056.82 217.93 1049.08 208.22 1040.08 198.65 1030.06 189.14 1019.41 179.79 1008.19 170.59 996.67 161.45 985.22 152.46 973.91 143.64 962.95 134.86 952.65 126.22 943.02 117.74 934.17 109.27 926.36 100.93 919.46 92.72 913.49 84.47 908.62 76.33 904.63 68.28 901.44 60.17 899.18 52.12 897.53 44.14 896.35 36.06 895.78 28.03 895.41 20.04 895.11 11.94 895.04 3.9 894.76 -4.08 894.17 -12.16 893.44 -20.16 892.19 -28.05 890.33 -35.99 888.09 -43.78 885.11 -51.38 881.36 -58.96 877.09 -66.3 872.02 -73.37 866.17 -80.33 859.75 -86.98 852.59 -93.29 844.72 -99.46 836.35 -105.26 827.35 -110.72 817.8 -116.03 807.86 -121.02 797.46 -125.71 786.67 -130.35 775.61 -134.77 764.27 -139.02 752.7 -143.35 740.99 -147.61 729.13 -151.84 717.18 -156.31 705.19 -160.84 693.16 -165.46 681.15 -170.39 669.15 -175.43 657.2 -180.57 645.31 -185.99 633.48 -191.43 621.73 -196.83 610.07 -202.33 598.5 -207.63 587.01 -212.65 575.62 -217.5 564.3 -221.88 553.07 -225.69 541.92 -229.11 530.83 -231.83 519.82 -233.8 508.86 -235.29 497.96 -236.04 487.1 -236.07 476.29 -235.73 465.51 -234.83 454.76 -233.46 444.04 -232.04 433.33 -230.39 422.64 -228.66 411.97 -227.23 401.3 -225.93 390.64 -224.86 379.99 -224.35 369.35 -224.16 358.83 -224.27 348.45 -224.91 338.07 -225.74 327.82 -226.67 317.71 -227.86 307.6 -228.93 297.62 -229.76 287.79 -230.49 277.96 -230.75 268.27 -230.45 258.74 -229.78 249.2 -228.43 239.81 -226.35 230.58 -223.83 221.34 -220.6 212.26 -216.71 203.33 -212.47 194.39 -207.71 185.6 -202.5 176.96 -197.16 168.3 -191.54 159.78 -185.74 151.4 -180.04 142.98 -174.29 134.68 -168.55 126.51 -163.05 118.27 -157.63 110.13 -152.29 102.1 -147.22 93.97 -142.22 85.92 -137.25 77.95 -132.48 69.87 -127.67 61.84 -122.78 53.86 -117.95 45.75 -112.96 37.68 -107.75 29.65 -102.5 21.49 -96.96 13.36 -91.13 5.27 -85.17 -2.93 -78.89 -11.1 -72.28 -19.21 -65.54 -27.41 -58.48 -35.53 -51.14 -43.56 -43.71 -51.64 -36.02 -59.6 -28.11 -67.4 -20.18 -75.21 -12.08 -82.83 -3.83 -90.24 4.37 -97.6 12.68 -104.72 21.07 -111.58 29.37 -118.34 37.73 -124.82 46.14 -130.99 54.44 -137.05 62.78 -142.79 71.17 -148.22 79.44 -153.54 87.77 -158.54 96.16 -163.24 104.46 -167.85 112.84 -172.17 121.3 -176.22 129.71 -180.22 138.21 -183.98 146.83 -187.5 155.42 -191.02 164.13 -194.33 172.98 -197.44 181.82 -200.59 190.8 -203.56 199.92 -206.34 209.05 -209.19 218.32 -211.87 227.73 -214.35 237.15 -216.91 246.72 -219.27 256.4 -221.44 266.1 -223.65 275.93 -225.65 285.85 -227.42 295.8 -229.23 305.84 -230.79 315.97 -232.09 326.1 -233.4 336.32 -234.45 346.6 -235.22 356.88 -235.99 367.22 -236.47 377.61 -236.66"
      stroke-dasharray="7 4" transform="rotate(8.08, 400, 400)"></path>
    <path
      d="M379.61 -210.73C389.62 -211.02 399.62 -211.01 409.61 -210.69 419.62 -210.31 429.63 -209.61 439.64 -208.59 449.68 -207.51 459.74 -206.11 469.82 -204.4 479.95 -202.62 490.13 -200.53 500.38 -198.15 510.68 -195.72 521.08 -193.01 531.57 -190.03 542.16 -187.02 552.87 -183.78 563.71 -180.31 574.67 -176.86 585.79 -173.21 597.06 -169.39 608.46 -165.63 620.02 -161.71 631.74 -157.66 643.57 -153.7 655.54 -149.63 667.63 -145.45 679.77 -141.38 691.98 -137.2 704.2 -132.92 716.38 -128.75 728.49 -124.47 740.46 -120.06 752.24 -115.74 763.75 -111.26 774.9 -106.64 785.68 -102.04 795.95 -97.26 805.62 -92.28 814.73 -87.28 823.09 -82.04 830.63 -76.57 837.46 -71.02 843.36 -65.21 848.3 -59.12 852.49 -52.92 855.71 -46.43 857.96 -39.66 859.6 -32.75 860.4 -25.56 860.45 -18.08 860.21 -10.47 859.48 -2.59 858.44 5.53 857.58 13.79 856.77 22.29 856.22 31.01 856.42 39.82 857.26 48.83 858.95 58.02 861.88 67.28 865.94 76.69 871.24 86.24 878.02 95.83 886.12 105.53 895.5 115.33 906.19 125.14 917.92 135.04 930.52 145.01 943.8 154.97 957.41 164.99 971.02 175.07 984.37 185.12 997.03 195.22 1008.61 205.37 1018.94 215.49 1027.57 225.65 1034.23 235.87 1038.93 246.04 1041.34 256.27 1041.39 266.55 1039.41 276.8 1035.26 287.11 1029.14 297.47 1021.67 307.81 1012.9 318.21 1003.26 328.68 993.55 339.14 983.92 349.67 974.87 360.27 967.17 370.87 960.92 381.54 956.48 392.29 954.37 403.04 954.48 413.87 956.85 424.79 961.64 435.7 968.33 446.56 976.55 457.36 986.2 468.16 996.49 478.9 1006.9 489.57 1017.27 500.23 1026.76 510.81 1034.92 521.29 1041.68 531.75 1046.39 542.1 1048.84 552.32 1049.15 562.5 1047.01 572.53 1042.48 582.38 1035.91 592.18 1027.29 601.77 1016.92 611.14 1005.29 620.43 992.59 629.46 979.23 638.21 965.69 646.84 952.24 655.17 939.23 663.17 927.06 671.02 915.88 678.53 905.91 685.66 897.4 692.63 890.32 699.23 884.68 705.44 879.26 714.34 876.34 730.11 877.76 737.09 880.56 743.74 886.03 756.12 887.47 762.14 887.37 768.54 880.93 782.55 874.32 790.55 868.65 796.55 861.9 802.97 854.15 809.87 845.61 817.42 836.22 825.49 826.08 834.1 815.37 843.35 804.1 853.1 792.39 863.32 780.36 874.04 768.06 885.11 755.61 896.42 743.05 907.97 730.48 919.54 717.95 931 705.5 942.32 693.18 953.24 681.05 963.61 669.08 973.4 657.33 982.35 645.81 990.31 634.51 997.33 623.43 1003.15 612.57 1007.65 601.92 1011.02 591.47 1013 581.19 1013.6 571.09 1013.11 561.12 1011.35 551.27 1008.4 541.55 1004.72 531.9 1000.16 522.3 994.91 512.79 989.51 503.3 983.86 493.8 978.2 484.35 973.07 474.87 968.39 465.35 964.38 455.84 961.51 446.28 959.65 436.64 958.93 427.01 959.69 417.3 961.71 407.5 964.97 397.71 969.62 387.83 975.34 377.87 981.95 367.9 989.46 357.98 997.31 348.1 1005.23 338.23 1013.26 328.41 1020.8 318.66 1027.59 308.92 1033.71 299.25 1038.63 289.68 1042.18 280.12 1044.53 270.65 1045.28 261.3 1044.4 251.97 1042.14 242.76 1038.28 233.67 1032.91 224.61 1026.36 215.68 1018.55 206.89 1009.68 198.12 1000.09 189.48 989.82 180.99 979.07 172.5 968.2 164.15 957.26 155.93 946.43 147.7 936.03 139.58 926.05 131.59 916.65 123.55 908.04 115.61 900.17 107.76 893.08 99.84 886.95 91.99 881.62 84.21 877.05 76.34 873.39 68.51 870.38 60.74 867.92 52.86 866.17 45.02 864.77 37.23 863.62 29.34 862.88 21.52 862.15 13.77 861.34 5.95 860.61 -1.75 859.6 -9.34 858.21 -16.94 856.66 -24.37 854.58 -31.61 851.93 -38.79 848.93 -45.75 845.28 -52.43 840.97 -59.02 836.23 -65.32 830.8 -71.31 824.72 -77.18 818.19 -82.75 811.03 -88.02 803.3 -93.2 795.17 -98.12 786.52 -102.8 777.41 -107.47 767.98 -111.98 758.17 -116.35 748.02 -120.82 737.66 -125.23 727.04 -129.63 716.21 -134.22 705.25 -138.84 694.15 -143.51 682.95 -148.42 671.69 -153.37 660.37 -158.33 649.03 -163.48 637.68 -168.57 626.34 -173.55 615.03 -178.56 603.74 -183.33 592.49 -187.78 581.3 -192.06 570.15 -195.89 559.06 -199.18 548.04 -202.14 537.06 -204.49 526.15 -206.2 515.31 -207.52 504.5 -208.22 493.75 -208.31 483.07 -208.14 472.41 -207.49 461.81 -206.45 451.26 -205.38 440.73 -204.12 430.25 -202.75 419.81 -201.64 409.39 -200.61 399 -199.72 388.66 -199.28 378.32 -199.05 368.14 -199.04 358.12 -199.45 348.1 -199.99 338.23 -200.58 328.51 -201.41 318.79 -202.12 309.22 -202.61 299.81 -203.07 290.38 -203.14 281.1 -202.74 271.98 -202.08 262.83 -200.84 253.84 -199 244.99 -196.8 236.11 -194 227.38 -190.61 218.78 -186.92 210.15 -182.73 201.65 -178.12 193.28 -173.35 184.86 -168.28 176.55 -162.97 168.35 -157.7 160.09 -152.3 151.92 -146.84 143.84 -141.54 135.68 -136.24 127.59 -130.96 119.57 -125.89 111.45 -120.84 103.38 -115.79 95.36 -110.92 87.22 -106.02 79.13 -101.04 71.07 -96.15 62.89 -91.12 54.75 -85.93 46.64 -80.73 38.41 -75.3 30.23 -69.63 22.1 -63.87 13.87 -57.83 5.71 -51.51 -2.37 -45.08 -10.51 -38.36 -18.55 -31.37 -26.47 -24.29 -34.41 -16.96 -42.19 -9.4 -49.79 -1.8 -57.36 5.98 -64.73 13.94 -71.86 21.88 -78.91 29.96 -85.71 38.14 -92.23 46.26 -98.63 54.45 -104.75 62.71 -110.55 70.88 -116.23 79.09 -121.6 87.35 -126.66 95.5 -131.6 103.7 -136.24 111.94 -140.59 120.07 -144.84 128.27 -148.83 136.52 -152.55 144.68 -156.22 152.91 -159.67 161.23 -162.89 169.48 -166.12 177.82 -169.16 186.27 -172.01 194.66 -174.91 203.18 -177.65 211.81 -180.22 220.41 -182.87 229.14 -185.37 237.99 -187.72 246.83 -190.14 255.8 -192.41 264.89 -194.51 273.97 -196.68 283.19 -198.67 292.52 -200.46 301.85 -202.3 311.31 -203.94 320.87 -205.34 330.44 -206.76 340.12 -207.94 349.91 -208.86 359.69 -209.76 369.59 -210.39 379.6 -210.73"
      stroke-dasharray="9 4" transform="rotate(12.12, 400, 400)"></path>
    <path
      d="M387.42 -184.8C397.18 -185.22 406.98 -185.32 416.83 -185.1 426.69 -184.8 436.6 -184.18 446.57 -183.23 456.57 -182.18 466.63 -180.81 476.77 -179.13 486.95 -177.35 497.21 -175.26 507.57 -172.88 517.98 -170.42 528.5 -167.69 539.12 -164.7 549.8 -161.68 560.6 -158.42 571.51 -154.95 582.48 -151.5 593.55 -147.85 604.72 -144.05 615.94 -140.3 627.22 -136.42 638.56 -132.41 649.89 -128.5 661.23 -124.49 672.53 -120.39 683.75 -116.41 694.87 -112.34 705.83 -108.19 716.61 -104.15 727.14 -100.03 737.33 -95.81 747.22 -91.69 756.68 -87.45 765.62 -83.09 774.13 -78.78 782.02 -74.32 789.24 -69.7 795.91 -65.09 801.82 -60.27 806.94 -55.25 811.48 -50.19 815.22 -44.9 818.14 -39.36 820.56 -33.73 822.26 -27.85 823.28 -21.7 824.01 -15.43 824.25 -8.9 824.11 -2.09 824.03 4.83 823.84 12.04 823.7 19.5 824.05 27.09 824.76 34.92 826 42.99 828.16 51.17 831.12 59.57 835.03 68.17 840.13 76.86 846.32 85.73 853.63 94.77 862.17 103.87 871.77 113.12 882.34 122.49 893.84 131.91 905.99 141.44 918.58 151.06 931.46 160.71 944.27 170.44 956.72 180.23 968.62 190.04 979.56 199.91 989.26 209.84 997.62 219.76 1004.27 229.73 1009.01 239.74 1011.94 249.74 1012.8 259.79 1011.58 269.87 1008.65 279.95 1003.88 290.06 997.49 300.21 990.08 310.35 981.67 320.53 972.64 330.75 963.73 340.96 955.02 351.21 946.93 361.5 940.14 371.78 934.7 382.11 930.89 392.46 929.19 402.82 929.45 413.21 931.71 423.63 936.13 434.05 942.23 444.37 949.7 454.58 958.51 464.79 967.94 474.89 977.56 484.86 987.26 494.82 996.28 504.65 1004.24 514.33 1011.09 523.98 1016.22 533.47 1019.4 542.78 1020.77 552.06 1019.95 561.13 1016.97 570 1012.1 578.8 1005.27 587.37 996.69 595.7 986.77 603.94 975.62 611.92 963.58 619.61 951.06 627.21 938.29 634.51 925.57 641.51 913.28 648.4 901.6 654.98 890.73 661.24 880.96 667.42 872.31 673.28 864.85 678.84 858.78 684.35 853.92 689.58 850.23 694.55 847.08 701.91 846.22 715.85 847.5 722.67 849.41 729.77 851.91 744.83 851.63 753.08 850.73 759.1 848.97 765.43 846.32 772.13 842.99 779.35 838.71 786.98 833.5 795.05 827.58 803.65 820.79 812.68 813.18 822.13 804.95 832.04 796.03 842.29 786.5 852.82 776.51 863.64 766.06 874.59 755.23 885.57 744.12 896.57 732.77 907.38 721.25 917.89 709.62 928.08 697.92 937.72 686.22 946.67 674.53 954.96 662.9 962.35 651.37 968.72 639.92 974.17 628.61 978.46 617.45 981.54 606.41 983.6 595.53 984.44 584.8 984.06 574.2 982.8 563.75 980.47 553.44 977.18 543.23 973.36 533.15 968.87 523.17 963.89 513.28 958.9 503.46 953.8 493.72 948.79 484.04 944.36 474.4 940.41 464.8 937.12 455.23 934.9 445.68 933.61 436.14 933.35 426.62 934.42 417.09 936.6 407.56 939.87 398.03 944.38 388.49 949.81 378.93 956.02 369.37 963.04 359.91 970.36 350.55 977.74 341.19 985.25 331.93 992.35 322.77 998.81 313.61 1004.72 304.56 1009.6 295.62 1013.29 286.68 1015.95 277.85 1017.19 269.15 1016.99 260.44 1015.55 251.86 1012.65 243.4 1008.35 234.93 1002.94 226.59 996.3 218.37 988.59 210.14 980.11 202.02 970.86 194.02 961.02 185.99 950.9 178.07 940.54 170.25 930.09 162.38 919.85 154.59 909.83 146.9 900.15 139.12 891.06 131.42 882.51 123.78 874.57 116.05 867.43 108.37 860.96 100.74 855.18 93.01 850.22 85.32 845.9 77.68 842.15 69.93 839.13 62.24 836.55 54.6 834.34 46.89 832.63 39.25 831.12 31.71 829.69 24.13 828.53 16.67 827.29 9.36 825.88 2.06 824.49 -5.06 822.79 -11.98 820.71 -18.84 818.47 -25.47 815.76 -31.85 812.53 -38.13 809.02 -44.15 804.95 -49.9 800.32 -55.56 795.34 -60.95 789.79 -66.09 783.7 -71.17 777.26 -76.04 770.3 -80.71 762.85 -85.4 755.1 -89.94 746.91 -94.37 738.33 -98.9 729.51 -103.37 720.35 -107.8 710.9 -112.4 701.26 -116.98 691.4 -121.56 681.34 -126.32 671.16 -131.05 660.84 -135.74 650.4 -140.53 639.91 -145.22 629.33 -149.75 618.71 -154.26 608.07 -158.51 597.4 -162.43 586.73 -166.2 576.06 -169.54 565.41 -172.41 554.78 -175 544.17 -177.07 533.59 -178.59 523.06 -179.81 512.55 -180.51 502.08 -180.71 491.67 -180.71 481.28 -180.32 470.93 -179.59 460.65 -178.86 450.37 -177.95 440.15 -176.92 429.98 -176.1 419.82 -175.3 409.71 -174.58 399.66 -174.21 389.6 -173.96 379.71 -173.84 369.98 -174.06 360.25 -174.35 350.67 -174.64 341.26 -175.14 331.83 -175.51 322.55 -175.7 313.42 -175.88 304.27 -175.74 295.27 -175.21 286.4 -174.5 277.51 -173.3 268.75 -171.61 260.12 -169.65 251.45 -167.17 242.91 -164.18 234.48 -160.95 226 -157.27 217.63 -153.18 209.36 -148.95 201.02 -144.41 192.78 -139.61 184.62 -134.8 176.38 -129.82 168.21 -124.72 160.11 -119.73 151.92 -114.67 143.78 -109.57 135.69 -104.63 127.5 -99.66 119.35 -94.67 111.24 -89.82 103.02 -84.92 94.84 -79.95 86.7 -75.06 78.46 -70.06 70.25 -64.92 62.1 -59.78 53.86 -54.46 45.67 -48.93 37.56 -43.34 29.39 -37.51 21.31 -31.43 13.33 -25.26 5.34 -18.84 -2.52 -12.16 -10.24 -5.39 -17.93 1.61 -25.44 8.85 -32.75 16.15 -39.99 23.65 -47.01 31.33 -53.78 39.03 -60.44 46.87 -66.84 54.85 -72.95 62.79 -78.93 70.84 -84.62 78.96 -90 87.02 -95.25 95.15 -100.2 103.33 -104.85 111.42 -109.39 119.56 -113.63 127.74 -117.6 135.82 -121.49 143.95 -125.12 152.12 -128.5 160.19 -131.86 168.32 -135 176.51 -137.94 184.61 -140.9 192.79 -143.68 201.04 -146.3 209.22 -148.99 217.49 -151.53 225.85 -153.93 234.16 -156.42 242.58 -158.78 251.11 -161.02 259.59 -163.35 268.2 -165.55 276.92 -167.61 285.62 -169.76 294.44 -171.76 303.39 -173.58 312.33 -175.47 321.39 -177.18 330.6 -178.67 339.78 -180.2 349.11 -181.49 358.58 -182.54 368.04 -183.57 377.65 -184.33 387.41 -184.8"
      stroke-dasharray="11 7" transform="rotate(16.16, 400, 400)"></path>
    <path
      d="M398.82 -158.87C408.4 -159.4 418.03 -159.6 427.73 -159.49 437.44 -159.28 447.21 -158.74 457.06 -157.86 466.92 -156.87 476.86 -155.55 486.87 -153.91 496.9 -152.16 507.02 -150.1 517.21 -147.74 527.43 -145.3 537.72 -142.58 548.08 -139.6 558.46 -136.58 568.89 -133.32 579.37 -129.86 589.85 -126.4 600.34 -122.76 610.83 -118.97 621.29 -115.23 631.7 -111.36 642.03 -107.37 652.28 -103.48 662.39 -99.5 672.33 -95.44 682.1 -91.5 691.62 -87.49 700.84 -83.41 709.81 -79.46 718.4 -75.44 726.56 -71.35 734.37 -67.37 741.67 -63.31 748.41 -59.14 754.74 -55.06 760.45 -50.86 765.52 -46.53 772.14 -40.01 781.53 -26.11 784.44 -18.66 786.49 -10.91 788.71 5.87 789.47 14.95 790.29 21.19 791.3 27.69 792.63 34.44 794.63 41.3 797.19 48.41 800.41 55.75 804.59 63.21 809.61 70.89 815.53 78.78 822.51 86.78 830.43 94.98 839.25 103.35 849.02 111.82 859.53 120.44 870.68 129.22 882.38 138.07 894.37 147.04 906.44 156.14 918.45 165.28 930.07 174.53 941.06 183.87 951.28 193.24 960.4 202.69 968.19 212.21 974.63 221.74 979.41 231.34 982.4 240.98 983.79 250.64 983.34 260.34 981.09 270.07 977.43 279.81 972.26 289.58 965.78 299.37 958.57 309.18 950.63 319 942.28 328.84 934.18 338.68 926.38 348.54 919.21 358.4 913.29 368.27 908.59 378.15 905.37 388.02 904.03 397.9 904.42 407.77 906.57 417.63 910.63 427.49 916.17 437.21 922.95 446.79 930.95 456.37 939.54 465.79 948.38 475.06 957.38 484.31 965.89 493.39 973.56 502.3 980.38 511.18 985.77 519.87 989.52 528.35 991.75 536.8 992.06 545.04 990.44 553.05 987.14 561.02 981.99 568.75 975.15 576.23 966.96 583.66 957.46 590.84 946.91 597.76 935.68 604.63 923.91 611.23 911.89 617.57 899.96 623.88 888.26 629.93 877.02 635.74 866.51 641.53 856.8 647.1 847.99 652.46 840.3 657.85 833.64 663.08 828.02 668.16 821.82 675.88 815.29 691.28 814.27 699.16 814.37 704.7 814.68 710.37 815.05 716.21 815.62 722.39 815.98 728.82 816 735.51 815.86 742.62 815.18 750.04 813.88 757.8 812.17 766 809.72 774.55 806.52 783.43 802.77 792.72 798.25 802.3 792.96 812.15 787.12 822.29 780.57 832.58 773.35 842.98 765.65 853.46 757.37 863.89 748.59 874.16 739.44 884.27 729.88 894.04 719.99 903.35 709.85 912.21 699.48 920.43 688.93 927.89 678.26 934.65 667.49 940.49 656.66 945.34 645.8 949.34 634.94 952.26 624.12 954.08 613.32 955.04 602.58 954.93 591.94 953.8 581.35 951.96 570.86 949.27 560.47 945.82 550.15 942.01 539.94 937.72 529.83 933.09 519.79 928.58 509.85 924.07 499.99 919.73 490.19 915.99 480.48 912.74 470.83 910.12 461.23 908.5 451.69 907.72 442.21 907.87 432.75 909.21 423.33 911.51 413.97 914.77 404.61 919.12 395.29 924.27 386.01 930.09 376.72 936.64 367.58 943.44 358.57 950.3 349.56 957.3 340.67 963.96 331.92 970.07 323.16 975.75 314.53 980.53 306.02 984.3 297.5 987.19 289.1 988.85 280.82 989.22 272.53 988.51 264.35 986.48 256.29 983.16 248.19 978.81 240.21 973.29 232.34 966.72 224.42 959.37 216.6 951.2 208.88 942.36 201.09 933.13 193.39 923.51 185.77 913.66 178.07 903.82 170.44 894.01 162.87 884.36 155.21 875.09 147.6 866.17 140.04 857.68 132.39 849.8 124.78 842.46 117.21 835.68 109.55 829.62 101.93 824.13 94.37 819.18 86.72 814.92 79.14 811.13 71.64 807.75 64.08 804.94 56.62 802.42 49.27 800.12 41.91 798.2 34.69 796.35 27.63 794.5 20.6 792.84 13.76 791.04 7.12 789.05 0.55 787.06 -5.78 784.78 -11.89 782.14 -17.91 779.37 -23.69 776.19 -29.23 772.57 -34.69 768.73 -39.92 764.42 -44.93 759.64 -49.91 754.6 -54.69 749.08 -59.31 743.12 -63.94 736.89 -68.45 730.23 -72.85 723.16 -77.34 715.86 -81.75 708.19 -86.1 700.18 -90.58 691.99 -95.01 683.5 -99.39 674.75 -103.9 665.85 -108.33 656.74 -112.67 647.45 -117.08 638.05 -121.33 628.51 -125.4 618.85 -129.43 609.12 -133.2 599.31 -136.66 589.43 -139.98 579.51 -142.92 569.55 -145.44 559.57 -147.75 549.57 -149.61 539.56 -151.01 529.55 -152.19 519.54 -152.94 509.54 -153.27 499.57 -153.46 489.59 -153.32 479.65 -152.89 469.73 -152.47 459.82 -151.87 449.95 -151.15 440.11 -150.59 430.28 -150.01 420.48 -149.43 410.72 -149.13 400.96 -148.88 391.35 -148.68 381.89 -148.74 372.42 -148.8 363.1 -148.84 353.91 -149.04 344.72 -149.12 335.65 -149.02 326.72 -148.94 317.77 -148.58 308.94 -147.89 300.23 -147.09 291.49 -145.88 282.86 -144.27 274.34 -142.45 265.77 -140.2 257.3 -137.53 248.93 -134.66 240.5 -131.39 232.16 -127.76 223.89 -124 215.56 -119.94 207.3 -115.62 199.09 -111.28 190.82 -106.74 182.6 -102.05 174.42 -97.42 166.17 -92.69 157.95 -87.88 149.78 -83.17 141.53 -78.4 133.31 -73.58 125.13 -68.86 116.87 -64.08 108.65 -59.22 100.48 -54.43 92.24 -49.53 84.06 -44.5 75.94 -39.49 67.78 -34.31 59.7 -28.95 51.71 -23.55 43.71 -17.94 35.82 -12.11 28.06 -6.2 20.33 -0.06 12.75 6.31 5.35 12.77 -1.98 19.47 -9.12 26.39 -16.04 33.38 -22.86 40.58 -29.44 47.97 -35.75 55.4 -41.95 63 -47.87 70.74 -53.51 78.49 -59.01 86.36 -64.22 94.34 -69.14 102.28 -73.93 110.31 -78.43 118.41 -82.64 126.45 -86.76 134.56 -90.6 142.71 -94.18 150.78 -97.7 158.91 -100.99 167.07 -104.05 175.16 -107.1 183.28 -109.97 191.46 -112.64 199.55 -115.36 207.7 -117.93 215.91 -120.35 224.04 -122.85 232.24 -125.23 240.52 -127.5 248.74 -129.87 257.03 -132.13 265.43 -134.29 273.77 -136.57 282.21 -138.73 290.76 -140.77 299.27 -142.92 307.9 -144.93 316.65 -146.8 325.37 -148.74 334.22 -150.51 343.21 -152.1 352.18 -153.71 361.3 -155.1 370.56 -156.27 379.82 -157.41 389.23 -158.28 398.81 -158.87"
      stroke-dasharray="5 7" transform="rotate(20.200000000000003, 400, 400)"></path>
    <path
      d="M410.55 -132.95C419.93 -133.57 429.35 -133.87 438.81 -133.86 448.28 -133.73 457.79 -133.28 467.34 -132.48 476.91 -131.57 486.51 -130.32 496.15 -128.75 505.8 -127.05 515.48 -125.04 525.18 -122.73 534.88 -120.33 544.59 -117.65 554.29 -114.7 563.97 -111.71 573.63 -108.48 583.23 -105.04 592.79 -101.59 602.27 -97.97 611.63 -94.19 620.91 -90.46 630.04 -86.59 638.98 -82.62 647.78 -78.73 656.34 -74.76 664.62 -70.71 672.69 -66.79 680.44 -62.8 687.81 -58.75 694.91 -54.84 701.6 -50.87 707.81 -46.85 713.73 -42.95 719.15 -38.98 724.04 -34.95 730.65 -29.01 740.84 -16.74 744.52 -10.35 747.53 -3.84 751.94 10.01 753.76 17.44 755.19 22.5 756.71 27.79 758.42 33.29 760.64 38.87 763.24 44.68 766.31 50.72 770.12 56.86 774.56 63.23 779.7 69.82 785.71 76.51 792.48 83.43 800.03 90.55 808.43 97.78 817.54 105.21 827.3 112.83 837.69 120.54 848.52 128.43 859.66 136.48 871.01 144.61 882.34 152.89 893.44 161.31 904.21 169.79 914.36 178.39 923.69 187.1 932.14 195.86 939.41 204.71 945.33 213.65 949.96 222.62 953.05 231.67 954.51 240.77 954.58 249.91 953.07 259.09 950.04 268.31 945.89 277.55 940.51 286.82 934.12 296.12 927.23 305.43 919.83 314.76 912.21 324.09 904.93 333.44 898 342.79 891.72 352.13 886.6 361.48 882.6 370.82 879.91 380.13 878.89 389.45 879.39 398.75 881.42 408 885.15 417.26 890.17 426.37 896.28 435.31 903.51 444.25 911.31 453.03 919.37 461.63 927.68 470.22 935.63 478.63 942.94 486.85 949.62 495.05 955.13 503.06 959.28 510.87 962.17 518.66 963.42 526.24 962.98 533.61 961.06 540.95 957.45 548.08 952.25 554.99 945.76 561.88 937.93 568.56 928.97 575.03 919.2 581.48 908.69 587.74 897.7 593.8 886.51 599.86 875.25 605.76 864.13 611.5 853.41 617.28 843.16 622.92 833.53 628.46 824.7 634.09 816.68 639.65 809.49 645.17 803.3 650.84 797.98 656.52 793.48 662.23 789.93 668.16 787.09 674.18 784.87 680.33 783.38 686.75 782.31 693.35 781.53 700.15 781.19 707.28 780.91 714.64 780.59 722.26 780.39 730.23 779.95 738.47 779.17 746.97 778.24 755.8 776.84 764.87 774.91 774.17 772.65 783.71 769.79 793.42 766.31 803.23 762.42 813.15 757.89 823.08 752.74 832.93 747.18 842.71 741.03 852.27 734.34 861.53 727.28 870.5 719.73 879.01 711.75 886.96 703.48 894.41 694.85 901.15 685.92 907.11 676.78 912.39 667.41 916.78 657.85 920.24 648.16 922.94 638.35 924.67 628.44 925.44 618.48 925.5 608.47 924.66 598.45 922.98 588.42 920.78 578.39 917.89 568.4 914.43 558.43 910.77 548.5 906.78 538.64 902.59 528.8 898.61 519.04 894.71 509.34 891.03 499.68 887.96 490.08 885.38 480.56 883.38 471.07 882.31 461.65 881.99 452.3 882.5 442.97 884.05 433.7 886.45 424.5 889.67 415.3 893.85 406.16 898.72 397.08 904.16 387.99 910.25 379.06 916.55 370.29 922.91 361.5 929.41 352.86 935.63 344.35 941.38 335.83 946.8 327.44 951.45 319.18 955.23 310.89 958.28 302.73 960.26 294.68 961.12 286.6 961.04 278.62 959.77 270.75 957.34 262.83 953.97 255.01 949.51 247.28 944.04 239.49 937.81 231.78 930.74 224.14 922.96 216.44 914.71 208.8 905.97 201.22 896.87 193.56 887.64 185.95 878.29 178.39 868.92 170.75 859.75 163.15 850.75 155.6 842.02 147.96 833.72 140.37 825.8 132.83 818.31 125.21 811.39 117.66 804.94 110.17 798.97 102.63 793.6 95.17 788.68 87.8 784.19 80.42 780.24 73.15 776.63 66.01 773.32 58.89 770.44 51.92 767.74 45.13 765.17 38.38 762.89 31.82 760.61 25.47 758.3 19.2 756.12 13.14 753.8 7.3 751.29 1.55 748.78 -3.98 746 -9.29 742.92 -14.53 739.75 -19.57 736.23 -24.41 732.35 -29.22 728.3 -33.87 723.87 -38.36 719.05 -42.86 714.04 -47.25 708.65 -51.52 702.87 -55.86 696.91 -60.11 690.59 -64.28 683.93 -68.54 677.09 -72.73 669.94 -76.83 662.5 -81.02 654.91 -85.1 647.07 -89.06 638.99 -93.06 630.81 -96.89 622.41 -100.52 613.85 -104.12 605.2 -107.47 596.4 -110.53 587.47 -113.48 578.5 -116.1 569.41 -118.35 560.25 -120.46 551.05 -122.18 541.79 -123.52 532.47 -124.71 523.14 -125.54 513.77 -126.02 504.38 -126.4 494.98 -126.5 485.56 -126.35 476.13 -126.21 466.71 -125.9 457.28 -125.45 447.85 -125.12 438.42 -124.73 429 -124.29 419.58 -124.05 410.17 -123.8 400.86 -123.54 391.68 -123.47 382.49 -123.35 373.42 -123.18 364.45 -123.12 355.48 -122.93 346.6 -122.58 337.83 -122.25 329.05 -121.67 320.35 -120.83 311.75 -119.9 303.13 -118.64 294.58 -117.04 286.12 -115.31 277.62 -113.2 269.19 -110.75 260.84 -108.15 252.43 -105.2 244.09 -101.94 235.8 -98.58 227.47 -94.95 219.18 -91.07 210.94 -87.15 202.64 -83.04 194.38 -78.77 186.17 -74.53 177.89 -70.16 169.66 -65.69 161.46 -61.29 153.21 -56.8 145.01 -52.24 136.85 -47.75 128.64 -43.18 120.49 -38.52 112.41 -33.92 104.29 -29.21 96.26 -24.38 88.3 -19.56 80.35 -14.6 72.5 -9.47 64.77 -4.31 57.07 1.03 49.5 6.58 42.1 12.19 34.75 18.02 27.59 24.06 20.62 30.19 13.74 36.54 7.08 43.11 0.65 49.76 -5.65 56.61 -11.71 63.66 -17.51 70.77 -23.17 78.06 -28.57 85.52 -33.68 93.01 -38.67 100.64 -43.37 108.4 -47.8 116.17 -52.11 124.04 -56.15 132.01 -59.92 139.95 -63.62 147.97 -67.07 156.06 -70.28 164.1 -73.45 172.2 -76.42 180.36 -79.18 188.45 -81.96 196.6 -84.57 204.79 -87.03 212.92 -89.54 221.1 -91.92 229.32 -94.19 237.49 -96.55 245.71 -98.81 253.99 -100.98 262.21 -103.27 270.51 -105.47 278.87 -107.58 287.19 -109.82 295.59 -111.97 304.07 -114.02 312.52 -116.17 321.07 -118.21 329.72 -120.13 338.35 -122.11 347.08 -123.95 355.94 -125.61 364.78 -127.3 373.74 -128.78 382.84 -130.04 391.93 -131.27 401.17 -132.25 410.54 -132.94"
      stroke-dasharray="0 1" transform="rotate(24.24, 400, 400)"></path>
    <path
      d="M419.28 -107.02C428.37 -107.72 437.46 -108.12 446.54 -108.2 455.63 -108.16 464.71 -107.8 473.79 -107.1 482.86 -106.27 491.92 -105.1 500.95 -103.61 509.97 -102 518.95 -100.07 527.89 -97.83 536.8 -95.5 545.64 -92.88 554.4 -90 563.11 -87.06 571.71 -83.88 580.17 -80.49 588.56 -77.08 596.78 -73.49 604.81 -69.74 612.73 -66.02 620.42 -62.17 627.85 -58.21 635.13 -54.33 642.11 -50.36 648.77 -46.31 655.25 -42.37 661.36 -38.38 667.09 -34.34 672.62 -30.42 677.74 -26.46 682.44 -22.46 688.97 -16.63 699.7 -4.89 703.98 1.04 707.79 6.93 714.15 19.11 717.01 25.46 720.16 31.92 727.57 45.67 732.27 53.01 736.09 58 740.38 63.2 745.2 68.59 750.72 74.05 756.83 79.72 763.57 85.59 771.03 91.54 779.1 97.69 787.75 104.05 797 110.49 806.72 117.13 816.82 123.95 827.25 130.86 837.83 137.95 848.43 145.21 858.97 152.54 869.22 160.04 879.01 167.68 888.29 175.38 896.81 183.23 904.39 191.19 911.04 199.21 916.52 207.34 920.7 215.56 923.7 223.83 925.3 232.19 925.48 240.62 924.48 249.08 922.15 257.61 918.57 266.19 914.13 274.79 908.74 283.44 902.57 292.11 896.1 300.81 889.31 309.53 882.43 318.26 875.97 327 869.89 335.75 864.45 344.48 860.07 353.23 856.71 361.97 854.5 370.68 853.77 379.4 854.36 388.09 856.28 396.73 859.68 405.38 864.21 413.88 869.7 422.23 876.2 430.57 883.23 438.75 890.54 446.77 898.14 454.78 905.51 462.63 912.4 470.3 918.84 477.96 924.34 485.45 928.74 492.76 932.12 500.06 934.12 507.19 934.66 514.15 933.93 521.09 931.69 527.87 928.01 534.48 923.11 541.1 916.92 547.56 909.58 553.87 901.36 560.2 892.29 566.4 882.56 572.48 872.43 578.61 861.99 584.65 851.43 590.6 840.97 596.63 830.69 602.62 820.75 608.57 811.32 614.66 802.42 620.75 794.15 626.87 786.64 633.16 779.83 639.52 773.73 645.97 768.47 652.65 763.89 659.45 759.95 666.4 756.74 673.6 754.06 680.98 751.81 688.55 750.11 696.39 748.69 704.43 747.44 712.67 746.5 721.16 745.57 729.85 744.56 738.7 743.63 747.75 742.48 756.93 741.03 766.21 739.48 775.59 737.53 784.99 735.15 794.34 732.55 803.68 729.45 812.87 725.85 821.84 721.97 830.63 717.57 839.08 712.67 847.12 707.47 854.79 701.79 861.93 695.66 868.46 689.26 874.46 682.45 879.76 675.28 884.29 667.87 888.19 660.15 891.28 652.15 893.52 643.98 895.11 635.57 895.86 626.98 895.8 618.28 895.17 609.42 893.81 600.45 891.78 591.41 889.38 582.3 886.48 573.12 883.14 563.92 879.74 554.68 876.14 545.44 872.44 536.18 869.02 526.93 865.74 517.7 862.71 508.47 860.28 499.27 858.32 490.11 856.9 480.96 856.32 471.85 856.41 462.78 857.22 453.72 858.95 444.71 861.42 435.74 864.58 426.78 868.58 417.86 873.16 408.98 878.24 400.1 883.87 391.37 889.7 382.77 895.57 374.17 901.59 365.69 907.36 357.34 912.75 348.98 917.88 340.73 922.37 332.59 926.11 324.43 929.26 316.38 931.48 308.42 932.72 300.43 933.17 292.52 932.57 284.71 930.93 276.84 928.45 269.06 924.97 261.34 920.54 253.57 915.39 245.86 909.41 238.22 902.7 230.51 895.48 222.85 887.71 215.24 879.49 207.57 871.04 199.94 862.34 192.36 853.48 184.71 844.66 177.11 835.87 169.57 827.18 161.96 818.76 154.41 810.57 146.93 802.66 139.4 795.18 131.95 788.05 124.59 781.29 117.21 775.04 109.92 769.17 102.76 763.68 95.6 758.69 88.58 754.04 81.71 749.71 74.87 745.81 68.21 742.15 61.72 738.7 55.3 735.58 49.07 732.58 43.04 729.65 37.1 726.94 31.36 724.22 25.83 721.44 20.38 718.77 15.14 715.96 10.1 712.99 2.73 708.44 -11.06 698.04 -17.56 692.07 -21.85 687.9 -26.03 683.4 -30.08 678.59 -34.19 673.66 -38.2 668.4 -42.11 662.83 -46.08 657.14 -49.96 651.14 -53.74 644.85 -57.58 638.45 -61.3 631.77 -64.88 624.84 -68.49 617.81 -71.93 610.55 -75.17 603.07 -78.39 595.52 -81.38 587.77 -84.12 579.86 -86.78 571.88 -89.15 563.75 -91.22 555.49 -93.19 547.19 -94.84 538.77 -96.17 530.25 -97.4 521.71 -98.32 513.08 -98.96 504.37 -99.54 495.65 -99.87 486.86 -99.97 478.02 -100.08 469.18 -100.02 460.28 -99.81 451.35 -99.69 442.41 -99.46 433.43 -99.15 424.43 -98.97 415.42 -98.73 406.48 -98.42 397.62 -98.25 388.76 -97.99 379.97 -97.63 371.26 -97.36 362.53 -96.95 353.88 -96.38 345.3 -95.82 336.7 -95.04 328.17 -94.03 319.7 -92.96 311.21 -91.63 302.78 -90 294.41 -88.28 286.01 -86.27 277.66 -83.95 269.35 -81.53 261.02 -78.83 252.73 -75.85 244.48 -72.81 236.2 -69.52 227.96 -66.01 219.76 -62.47 211.52 -58.75 203.33 -54.86 195.17 -51 186.98 -47 178.84 -42.89 170.75 -38.83 162.63 -34.66 154.57 -30.41 146.57 -26.22 138.56 -21.93 130.63 -17.55 122.78 -13.21 114.94 -8.77 107.2 -4.2 99.56 0.33 91.97 5.02 84.5 9.85 77.17 14.71 69.9 19.74 62.8 24.95 55.87 30.21 49.03 35.67 42.39 41.33 35.96 47.07 29.64 53.02 23.54 59.17 17.68 65.41 11.95 71.86 6.47 78.49 1.24 85.21 -3.85 92.11 -8.68 99.19 -13.25 106.32 -17.7 113.62 -21.89 121.06 -25.82 128.53 -29.66 136.14 -33.26 143.86 -36.61 151.59 -39.91 159.42 -42.99 167.34 -45.86 175.25 -48.72 183.24 -51.4 191.29 -53.91 199.32 -56.45 207.41 -58.86 215.55 -61.13 223.65 -63.48 231.81 -65.73 240.02 -67.88 248.18 -70.14 256.4 -72.32 264.67 -74.43 272.9 -76.67 281.18 -78.83 289.52 -80.93 297.82 -83.15 306.19 -85.3 314.63 -87.36 323.03 -89.54 331.51 -91.61 340.07 -93.57 348.6 -95.6 357.22 -97.48 365.93 -99.21 374.63 -100.96 383.42 -102.52 392.31 -103.86 401.19 -105.17 410.18 -106.23 419.27 -107.02"
      stroke-dasharray="11 9" transform="rotate(28.28, 400, 400)"></path>
    <path
      d="M422.49 -81.09C431.17 -81.87 439.79 -82.35 448.36 -82.52 456.92 -82.57 465.42 -82.29 473.85 -81.69 482.28 -80.95 490.62 -79.89 498.88 -78.5 507.11 -76.98 515.24 -75.15 523.25 -73.02 531.23 -70.78 539.08 -68.26 546.77 -65.47 554.4 -62.61 561.86 -59.52 569.13 -56.2 576.32 -52.86 583.29 -49.33 590.02 -45.63 596.65 -41.95 603.02 -38.13 609.1 -34.2 615.07 -30.33 620.74 -26.36 626.09 -22.32 631.31 -18.37 636.2 -14.36 640.76 -10.3 647.26 -4.37 658.51 7.47 663.33 13.39 667.86 19.16 676.01 30.78 679.87 36.67 683.99 42.52 693.07 54.61 698.36 60.91 702.42 65.13 706.83 69.5 711.64 74.01 717 78.52 722.82 83.2 729.12 88.05 736.01 92.93 743.4 97.99 751.26 103.22 759.65 108.5 768.46 113.96 777.63 119.61 787.16 125.31 796.9 131.2 806.77 137.26 816.71 143.39 826.56 149.69 836.19 156.15 845.55 162.68 854.43 169.37 862.71 176.2 870.36 183.1 877.17 190.14 883.01 197.3 887.95 204.52 891.76 211.86 894.38 219.3 895.96 226.79 896.32 234.38 895.45 242.06 893.65 249.77 890.74 257.56 886.83 265.41 882.29 273.29 877.03 281.22 871.2 289.2 865.24 297.21 859.1 305.24 852.98 313.3 847.31 321.38 842.06 329.47 837.39 337.57 833.71 345.68 830.92 353.79 829.15 361.88 828.67 369.99 829.33 378.07 831.14 386.13 834.23 394.19 838.3 402.13 843.21 409.94 849.02 417.74 855.31 425.42 861.89 432.96 868.8 440.49 875.56 447.89 881.98 455.15 888.1 462.41 893.49 469.54 897.99 476.53 901.69 483.52 904.25 490.39 905.58 497.13 905.84 503.88 904.79 510.52 902.44 517.05 899.01 523.6 894.36 530.06 888.6 536.43 881.96 542.85 874.4 549.2 866.09 555.49 857.25 561.86 847.92 568.2 838.25 574.52 828.47 580.94 818.63 587.37 808.85 593.83 799.33 600.42 790.1 607.07 781.24 613.79 772.91 620.67 765.08 627.65 757.8 634.74 751.18 642.02 745.14 649.42 739.67 656.97 734.86 664.71 730.59 672.6 726.79 680.63 723.57 688.85 720.72 697.21 718.18 705.69 716.08 714.32 714.15 723.04 712.33 731.82 710.76 740.69 709.17 749.57 707.5 758.41 705.91 767.25 704.14 775.97 702.12 784.54 700.06 792.97 697.68 801.15 694.97 809.01 692.1 816.61 688.86 823.79 685.22 830.5 681.39 836.8 677.15 842.55 672.52 847.68 667.68 852.31 662.45 856.26 656.85 859.49 651.06 862.18 644.92 864.14 638.47 865.36 631.85 866.05 624.95 866.04 617.8 865.36 610.51 864.26 603 862.58 595.3 860.38 587.51 857.95 579.56 855.16 571.47 852.07 563.32 849.02 555.06 845.86 546.71 842.69 538.32 839.84 529.87 837.17 521.37 834.78 512.85 832.95 504.3 831.55 495.72 830.66 487.13 830.51 478.53 830.96 469.93 832.03 461.32 833.9 452.72 836.4 444.11 839.48 435.51 843.29 426.91 847.59 418.32 852.31 409.72 857.52 401.24 862.88 392.85 868.27 384.46 873.82 376.17 879.16 367.97 884.18 359.76 889.01 351.64 893.3 343.61 896.96 335.56 900.13 327.58 902.52 319.68 904.06 311.75 904.94 303.89 904.91 296.1 903.95 288.27 902.27 280.5 899.67 272.78 896.2 265.03 892.07 257.32 887.14 249.67 881.49 241.97 875.33 234.32 868.58 226.71 861.32 219.07 853.77 211.47 845.86 203.93 837.7 196.35 829.46 188.82 821.11 181.36 812.73 173.88 804.47 166.47 796.3 159.13 788.28 151.8 780.54 144.55 773.03 137.41 765.78 130.29 758.91 123.29 752.34 116.41 746.08 109.59 740.23 102.9 734.69 96.38 729.44 89.92 724.59 83.63 719.99 77.52 715.63 71.5 711.61 65.66 707.76 60.02 704.05 54.47 700.62 49.11 697.25 43.95 693.92 36.42 689.19 22.38 679.63 15.83 674.62 9.47 669.5 -2.56 658.24 -8.28 652.01 -12.09 647.72 -15.8 643.18 -19.41 638.38 -23.07 633.5 -26.62 628.36 -30.06 622.97 -33.55 617.49 -36.92 611.76 -40.15 605.79 -43.41 599.74 -46.51 593.46 -49.42 586.95 -52.33 580.38 -55.04 573.61 -57.53 566.64 -59.97 559.61 -62.17 552.4 -64.12 545.03 -66.01 537.62 -67.63 530.06 -68.99 522.35 -70.28 514.62 -71.33 506.77 -72.12 498.79 -72.88 490.8 -73.41 482.7 -73.74 474.51 -74.07 466.3 -74.23 458.01 -74.23 449.63 -74.29 441.25 -74.21 432.79 -74.01 424.26 -73.89 415.73 -73.66 407.22 -73.33 398.76 -73.07 390.29 -72.7 381.85 -72.21 373.46 -71.76 365.06 -71.16 356.69 -70.4 348.37 -69.64 340.04 -68.69 331.74 -67.52 323.48 -66.32 315.22 -64.88 306.98 -63.2 298.78 -61.47 290.57 -59.48 282.39 -57.24 274.25 -54.94 266.09 -52.4 257.97 -49.63 249.88 -46.81 241.78 -43.79 233.71 -40.57 225.69 -37.34 217.65 -33.95 209.66 -30.4 201.72 -26.87 193.77 -23.22 185.88 -19.44 178.05 -15.72 170.22 -11.88 162.47 -7.95 154.8 -4.08 147.16 -0.11 139.6 3.95 132.15 7.98 124.74 12.11 117.45 16.35 110.29 20.57 103.19 24.93 96.24 29.42 89.46 33.92 82.75 38.57 76.22 43.39 69.89 48.25 63.65 53.29 57.62 58.52 51.81 63.81 46.11 69.29 40.63 74.97 35.4 80.73 30.28 86.68 25.4 92.82 20.78 99.05 16.26 105.47 11.99 112.06 7.96 118.73 4.03 125.56 0.33 132.55 -3.12 139.61 -6.51 146.81 -9.7 154.14 -12.67 161.51 -15.61 169 -18.36 176.59 -20.94 184.22 -23.54 191.93 -25.98 199.73 -28.28 207.53 -30.64 215.41 -32.88 223.36 -35.03 231.3 -37.26 239.3 -39.41 247.35 -41.49 255.39 -43.69 263.48 -45.82 271.62 -47.9 279.74 -50.11 287.91 -52.26 296.12 -54.36 304.32 -56.59 312.56 -58.75 320.85 -60.84 329.13 -63.03 337.45 -65.14 345.82 -67.13 354.19 -69.2 362.6 -71.13 371.07 -72.9 379.53 -74.7 388.05 -76.32 396.62 -77.72 405.19 -79.09 413.81 -80.22 422.48 -81.09"
      stroke-dasharray="4 10" transform="rotate(32.32, 400, 400)"></path>
    <path
      d="M419.29 -55.16C427.42 -56.01 435.46 -56.56 443.39 -56.81 451.32 -56.94 459.14 -56.75 466.84 -56.25 474.53 -55.62 482.09 -54.66 489.51 -53.4 496.91 -51.99 504.16 -50.28 511.24 -48.28 518.29 -46.16 525.17 -43.76 531.86 -41.1 538.49 -38.35 544.93 -35.37 551.15 -32.16 557.31 -28.91 563.24 -25.47 568.93 -21.86 574.54 -18.25 579.91 -14.49 585.03 -10.61 590.07 -6.77 594.86 -2.83 599.38 1.19 605.96 7.15 617.84 19.19 623.22 25.24 628.44 31.14 638.29 42.9 643.11 48.77 648.17 54.51 658.99 66.07 664.99 71.93 669.42 75.78 674.1 79.72 679.08 83.75 684.5 87.72 690.26 91.81 696.39 96 702.99 100.17 709.96 104.47 717.32 108.9 725.11 113.32 733.23 117.89 741.67 122.61 750.42 127.34 759.39 132.23 768.5 137.27 777.75 142.35 786.99 147.58 796.13 152.97 805.16 158.39 813.9 163.98 822.24 169.72 830.18 175.5 837.54 181.43 844.19 187.51 850.19 193.63 855.33 199.89 859.53 206.27 862.9 212.71 865.24 219.26 866.52 225.93 866.92 232.64 866.29 239.45 864.64 246.36 862.25 253.3 858.99 260.33 854.95 267.44 850.48 274.58 845.48 281.78 840.09 289.05 834.7 296.34 829.24 303.68 823.87 311.06 818.98 318.46 814.49 325.89 810.55 333.35 807.5 340.82 805.24 348.31 803.85 355.82 803.59 363.33 804.31 370.85 805.99 378.37 808.8 385.9 812.44 393.33 816.79 400.67 821.96 408.02 827.56 415.27 833.44 422.42 839.66 429.58 845.81 436.64 851.71 443.61 857.45 450.59 862.63 457.48 867.1 464.28 870.98 471.1 873.92 477.84 875.85 484.51 876.91 491.2 876.84 497.83 875.65 504.4 873.51 511.01 870.27 517.58 865.98 524.12 860.86 530.72 854.83 537.3 848 543.88 840.57 550.53 832.54 557.2 824.04 563.9 815.25 570.69 806.21 577.53 797.04 584.42 787.89 591.43 778.81 598.52 769.89 605.69 761.25 612.98 752.92 620.38 744.94 627.87 737.42 635.49 730.33 643.22 723.7 651.05 717.6 659.01 711.96 667.05 706.76 675.18 702.1 683.4 697.82 691.69 693.91 700 690.45 708.37 687.26 716.74 684.3 725.07 681.68 733.38 679.19 741.6 676.77 749.68 674.56 757.66 672.34 765.43 670.05 772.96 667.86 780.27 665.52 787.27 663.01 793.88 660.49 800.19 657.73 806.04 654.71 811.41 649.93 818.58 638.7 829.37 632.21 832.88 625.22 835.06 609.52 835.74 600.87 834.36 594.91 832.98 588.69 831.16 582.24 828.95 575.7 826.64 568.95 824.07 562.01 821.32 555 818.68 547.82 816.01 540.5 813.4 533.13 811.12 525.62 809.04 518 807.23 510.36 805.96 502.61 805.09 494.78 804.66 486.93 804.9 479.01 805.64 471.02 806.92 463.03 808.89 454.97 811.39 446.87 814.38 438.77 818 430.62 822.02 422.43 826.38 414.23 831.18 406.1 836.09 398.02 841.03 389.94 846.12 381.91 851.04 373.95 855.69 365.98 860.2 358.06 864.26 350.19 867.79 342.32 870.94 334.49 873.42 326.72 875.19 318.93 876.41 311.19 876.83 303.49 876.46 295.78 875.46 288.1 873.65 280.48 871.05 272.83 867.85 265.23 863.91 257.67 859.29 250.1 854.16 242.57 848.44 235.09 842.19 227.61 835.6 220.17 828.6 212.8 821.27 205.43 813.77 198.12 806.06 190.89 798.22 183.67 790.37 176.54 782.5 169.5 774.65 162.5 766.95 155.6 759.36 148.82 751.92 142.09 744.74 135.5 737.76 129.04 730.99 122.65 724.55 116.42 718.34 110.35 712.37 104.36 706.74 98.54 701.34 92.9 696.16 87.35 691.29 81.98 686.62 76.8 682.11 71.7 677.88 66.78 673.77 62.05 669.75 55.14 664.09 42.26 653.12 36.24 647.67 30.39 642.29 19.33 631.06 14.08 625.12 8.88 619.01 -1.05 605.81 -5.79 598.68 -8.97 593.83 -12.02 588.75 -14.95 583.47 -17.91 578.15 -20.73 572.61 -23.39 566.87 -26.06 561.08 -28.55 555.09 -30.86 548.91 -33.15 542.69 -35.25 536.29 -37.13 529.7 -38.98 523.09 -40.61 516.31 -42.02 509.36 -43.4 502.39 -44.56 495.28 -45.5 488.01 -46.42 480.74 -47.14 473.33 -47.67 465.79 -48.19 458.24 -48.54 450.57 -48.71 442.79 -48.92 435.01 -48.96 427.11 -48.86 419.11 -48.8 411.12 -48.59 403.11 -48.25 395.11 -47.94 387.11 -47.49 379.11 -46.89 371.12 -46.31 363.13 -45.56 355.15 -44.64 347.18 -43.72 339.21 -42.61 331.26 -41.31 323.33 -39.98 315.39 -38.45 307.48 -36.7 299.58 -34.92 291.69 -32.92 283.82 -30.71 275.98 -28.48 268.14 -26.03 260.33 -23.39 252.56 -20.74 244.79 -17.91 237.06 -14.91 229.38 -11.91 221.71 -8.77 214.09 -5.49 206.53 -2.25 198.99 1.11 191.52 4.59 184.13 8.01 176.77 11.54 169.49 15.16 162.32 18.73 155.19 22.39 148.17 26.14 141.27 29.85 134.43 33.66 127.73 37.56 121.18 41.44 114.7 45.44 108.39 49.56 102.24 53.68 96.19 57.93 90.33 62.33 84.66 66.75 79.09 71.34 73.72 76.08 68.57 80.88 63.53 85.86 58.7 91.01 54.1 96.23 49.6 101.63 45.33 107.21 41.28 112.87 37.32 118.71 33.59 124.72 30.07 130.82 26.62 137.08 23.38 143.51 20.34 150.01 17.34 156.66 14.52 163.45 11.88 170.3 9.24 177.29 6.75 184.39 4.4 191.54 2.02 198.8 -0.23 206.16 -2.38 213.56 -4.6 221.04 -6.73 228.6 -8.79 236.18 -10.95 243.83 -13.04 251.54 -15.08 259.27 -17.25 267.05 -19.37 274.88 -21.44 282.71 -23.65 290.59 -25.81 298.5 -27.92 306.42 -30.16 314.38 -32.34 322.36 -34.46 330.35 -36.67 338.36 -38.8 346.4 -40.82 354.44 -42.92 362.51 -44.88 370.59 -46.69 378.68 -48.53 386.78 -50.18 394.9 -51.63 403.02 -53.05 411.15 -54.23 419.28 -55.16"
      stroke-dasharray="5 2" transform="rotate(36.36, 400, 400)"></path>
    <path
      d="M410.58 -29.23C418.08 -30.13 425.46 -30.74 432.71 -31.07 439.96 -31.28 447.07 -31.18 454.04 -30.79 460.99 -30.26 467.79 -29.42 474.44 -28.28 481.07 -27.01 487.53 -25.43 493.81 -23.58 500.07 -21.6 506.15 -19.35 512.04 -16.84 517.89 -14.24 523.56 -11.4 529.02 -8.34 534.45 -5.22 539.68 -1.91 544.71 1.57 549.7 5.09 554.5 8.75 559.1 12.54 565.88 18.26 578.56 30.11 584.52 36.17 590.43 42.16 601.91 54.2 607.63 60.22 613.58 66.1 626.09 77.81 632.83 83.66 637.65 87.47 642.67 91.31 647.91 95.2 653.49 99.01 659.33 102.86 665.44 106.78 671.91 110.63 678.66 114.56 685.7 118.57 693.06 122.52 700.69 126.57 708.57 130.72 716.69 134.84 725 139.07 733.44 143.41 742 147.74 750.59 152.2 759.13 156.78 767.63 161.36 775.95 166.07 784 170.92 791.79 175.78 799.18 180.78 806.06 185.91 812.47 191.06 818.24 196.35 823.29 201.77 827.7 207.21 831.29 212.79 834.02 218.49 836.02 224.21 837.11 230.06 837.3 236.02 836.78 242.01 835.41 248.11 833.21 254.31 830.48 260.53 827.07 266.85 823.07 273.27 818.81 279.7 814.18 286.22 809.3 292.81 804.52 299.42 799.74 306.1 795.11 312.84 790.95 319.59 787.18 326.41 783.91 333.27 781.44 340.14 779.64 347.06 778.6 354.03 778.53 360.99 779.28 368 780.85 375.05 783.38 382.09 786.62 389.09 790.46 396.03 795.02 402.98 799.97 409.88 805.18 416.73 810.72 423.58 816.26 430.38 821.63 437.14 826.94 443.91 831.82 450.63 836.17 457.32 840.08 464.03 843.24 470.7 845.58 477.35 847.24 484.02 847.96 490.69 847.72 497.33 846.68 504.02 844.68 510.71 841.73 517.41 838.02 524.16 833.45 530.93 828.08 537.73 822.11 544.59 815.48 551.49 808.29 558.44 800.73 565.47 792.77 572.55 784.52 579.69 776.14 586.92 767.64 594.21 759.1 601.57 750.66 609.01 742.32 616.53 734.15 624.1 726.25 631.76 718.61 639.47 711.27 647.22 704.31 655.03 697.7 662.86 691.43 670.7 685.6 678.57 680.11 686.41 674.95 694.2 670.21 701.97 665.77 709.64 661.59 717.2 657.77 724.66 654.16 731.95 650.72 739.03 647.55 745.94 644.48 752.58 641.47 758.92 638.65 765.01 635.82 770.75 632.95 776.08 628.75 783.38 619.8 795.09 614.91 799.38 609.79 802.56 598.34 805.69 591.98 805.7 585.26 804.8 570.5 800.65 562.48 797.67 556.99 795.58 551.28 793.33 545.36 790.98 539.39 788.8 533.22 786.64 526.87 784.58 520.48 782.85 513.92 781.34 507.2 780.08 500.45 779.32 493.56 778.91 486.54 778.88 479.49 779.45 472.33 780.44 465.05 781.88 457.76 783.93 450.37 786.4 442.88 789.28 435.39 792.69 427.8 796.43 420.13 800.45 412.46 804.85 404.8 809.34 397.15 813.84 389.51 818.49 381.88 822.99 374.27 827.26 366.67 831.45 359.08 835.26 351.52 838.63 343.97 841.7 336.43 844.22 328.93 846.13 321.42 847.6 313.94 848.39 306.5 848.5 299.05 848.08 291.64 846.95 284.27 845.12 276.9 842.76 269.57 839.73 262.29 836.05 255.01 831.92 247.79 827.2 240.62 821.96 233.47 816.37 226.38 810.33 219.36 803.92 212.37 797.29 205.46 790.37 198.64 783.23 191.86 776.01 185.17 768.66 178.6 761.23 172.08 753.85 165.68 746.46 159.41 739.12 153.21 731.93 147.14 724.83 141.23 717.86 135.39 711.11 129.71 704.52 124.19 698.09 118.75 691.92 113.48 685.94 108.39 680.13 103.37 674.59 98.53 669.22 93.87 664.01 89.27 659.04 84.84 654.22 80.58 649.52 74.35 642.84 62.71 630.1 57.27 623.94 51.96 617.97 41.91 605.98 37.13 599.87 32.39 593.74 23.33 580.92 19 574.17 14.69 567.27 6.58 552.63 2.81 544.87 0.31 539.62 -2.03 534.2 -4.22 528.6 -6.42 522.99 -8.45 517.2 -10.31 511.25 -12.16 505.27 -13.82 499.13 -15.3 492.84 -16.76 486.52 -18.03 480.05 -19.11 473.44 -20.17 466.81 -21.05 460.03 -21.74 453.12 -22.42 446.2 -22.93 439.15 -23.25 431.97 -23.58 424.78 -23.73 417.47 -23.72 410.05 -23.71 402.62 -23.53 395.16 -23.19 387.69 -22.85 380.22 -22.34 372.73 -21.66 365.23 -20.98 357.73 -20.13 350.23 -19.09 342.73 -18.05 335.24 -16.82 327.74 -15.4 320.26 -13.97 312.78 -12.34 305.32 -10.53 297.87 -8.69 290.44 -6.67 283.02 -4.46 275.63 -2.25 268.26 0.14 260.93 2.69 253.63 5.25 246.35 7.96 239.12 10.81 231.95 13.64 224.8 16.6 217.71 19.68 210.7 22.71 203.73 25.85 196.83 29.09 190.03 32.28 183.27 35.55 176.61 38.91 170.07 42.21 163.59 45.6 157.22 49.06 151 52.48 144.84 55.98 138.82 59.57 132.97 63.12 127.19 66.78 121.58 70.53 116.14 74.28 110.79 78.13 105.63 82.12 100.65 86.11 95.77 90.23 91.08 94.5 86.6 98.8 82.2 103.25 78 107.85 74.01 112.51 70.1 117.33 66.39 122.31 62.89 127.36 59.44 132.58 56.19 137.95 53.12 143.4 50.09 149.02 47.24 154.78 44.56 160.62 41.88 166.62 39.36 172.75 36.98 178.95 34.57 185.29 32.29 191.76 30.12 198.29 27.89 204.93 25.76 211.68 23.71 218.49 21.57 225.39 19.5 232.37 17.49 239.4 15.36 246.51 13.29 253.69 11.25 260.9 9.09 268.17 6.96 275.49 4.88 282.83 2.66 290.22 0.48 297.65 -1.65 305.09 -3.9 312.57 -6.1 320.07 -8.24 327.58 -10.46 335.11 -12.61 342.65 -14.66 350.2 -16.76 357.76 -18.74 365.32 -20.58 372.88 -22.42 380.44 -24.1 387.99 -25.58 395.54 -27.03 403.07 -28.25 410.57 -29.23"
      stroke-dasharray="2 1" transform="rotate(40.400000000000006, 400, 400)"></path>
    <path
      d="M398.85 -3.31C405.69 -4.24 412.41 -4.9 419 -5.3 425.58 -5.58 432.03 -5.57 438.35 -5.28 444.65 -4.86 450.81 -4.15 456.82 -3.14 462.82 -2.01 468.67 -0.59 474.37 1.09 480.05 2.91 485.57 4.99 490.94 7.32 498.9 11.08 514.04 19.82 521.24 24.73 528.32 29.86 541.89 40.86 548.45 46.64 552.84 50.51 557.17 54.45 561.45 58.47 565.81 62.43 570.16 66.45 574.52 70.51 579 74.49 583.52 78.51 588.1 82.57 592.86 86.52 597.72 90.51 602.69 94.51 607.88 98.42 613.22 102.35 618.73 106.3 624.48 110.15 630.43 114.03 636.58 117.95 642.99 121.76 649.6 125.62 656.42 129.52 663.48 133.34 670.73 137.21 678.15 141.13 685.77 144.99 693.5 148.92 701.34 152.92 709.27 156.86 717.22 160.89 725.14 165 733.04 169.08 740.81 173.25 748.39 177.52 755.79 181.77 762.89 186.12 769.62 190.58 776.01 195.03 781.92 199.59 787.28 204.27 792.16 208.94 796.41 213.73 799.96 218.64 804.06 226.06 807.56 241.5 806.97 249.51 805.78 254.89 803.91 260.39 801.4 265.99 798.52 271.6 795.14 277.31 791.33 283.12 787.39 288.94 783.21 294.85 778.88 300.86 774.73 306.87 770.63 312.97 766.71 319.15 763.24 325.33 760.14 331.59 757.48 337.93 755.52 344.27 754.14 350.69 753.4 357.17 753.48 363.66 754.25 370.21 755.71 376.84 757.98 383.46 760.84 390.07 764.21 396.67 768.21 403.27 772.54 409.86 777.11 416.44 782.02 423.02 786.94 429.6 791.77 436.16 796.61 442.74 801.13 449.31 805.26 455.88 809.08 462.47 812.33 469.07 814.92 475.67 816.99 482.3 818.29 488.94 818.8 495.59 818.66 502.28 817.7 509 815.9 515.74 813.46 522.52 810.22 529.34 806.23 536.19 801.67 543.1 796.45 550.04 790.65 557.02 784.41 564.06 777.71 571.14 770.62 578.26 763.28 585.43 755.69 592.64 747.92 599.88 740.08 607.16 732.19 614.47 724.3 621.8 716.51 629.14 708.82 636.49 701.28 643.82 693.95 651.15 686.84 658.44 679.95 665.67 673.37 672.86 667.04 679.96 660.97 686.94 655.23 693.84 649.75 700.58 644.52 707.14 639.6 713.56 634.91 719.75 630.42 725.69 626.2 731.43 622.14 736.88 618.21 741.99 612.7 749.11 602.22 760.98 597.1 765.64 586.95 771.76 570.86 775.37 565.01 774.77 558.97 773.52 545.93 769.37 538.91 766.7 531.65 763.99 516.13 758.62 507.88 756.27 502.3 755.07 496.54 754.07 490.61 753.32 484.66 753 478.55 753 472.29 753.33 466.01 754.16 459.58 755.36 453.02 756.92 446.45 758.99 439.75 761.41 432.93 764.16 426.1 767.37 419.15 770.83 412.09 774.52 405.03 778.54 397.95 782.61 390.85 786.7 383.76 790.92 376.65 795.01 369.55 798.92 362.44 802.77 355.34 806.32 348.24 809.49 341.16 812.45 334.08 814.94 327.01 816.93 319.96 818.57 312.93 819.64 305.92 820.12 298.93 820.17 291.97 819.61 285.04 818.44 278.14 816.82 271.27 814.6 264.46 811.8 257.67 808.58 250.94 804.82 244.28 800.55 237.65 795.94 231.09 790.88 224.61 785.43 218.18 779.72 211.84 773.69 205.59 767.39 199.4 760.94 193.32 754.29 187.36 747.49 181.46 740.64 175.68 733.71 170.04 726.74 164.47 719.81 159.04 712.89 153.76 706.01 148.55 699.25 143.5 692.57 138.6 685.98 133.77 679.56 129.1 673.26 124.59 667.08 120.15 661.1 115.86 655.26 111.73 649.54 107.66 644.02 103.73 638.63 99.95 633.35 96.21 628.27 92.6 623.28 89.13 618.38 84 611.32 74.33 597.67 69.75 591.01 65.22 584.51 56.53 571.5 52.37 564.92 48.2 558.35 40.21 544.81 36.4 537.8 32.61 530.68 25.54 515.83 22.28 508.07 19.13 500.17 13.54 483.65 11.14 475.03 9.6 469.23 8.24 463.29 7.04 457.21 5.86 451.13 4.85 444.91 4.03 438.56 3.22 432.2 2.59 425.72 2.14 419.11 1.72 412.5 1.47 405.77 1.41 398.92 1.38 392.07 1.53 385.19 1.86 378.28 2.21 371.38 2.75 364.45 3.47 357.51 4.21 350.58 5.14 343.64 6.24 336.69 7.38 329.76 8.69 322.82 10.19 315.9 11.71 308.98 13.4 302.08 15.27 295.21 17.16 288.35 19.21 281.51 21.42 274.71 23.64 267.94 26.01 261.2 28.53 254.52 31.03 247.86 33.66 241.26 36.42 234.72 39.15 228.22 41.98 221.8 44.92 215.45 47.81 209.15 50.79 202.95 53.86 196.84 56.87 190.79 59.95 184.84 63.11 179.02 66.21 173.26 69.37 167.63 72.61 162.13 75.78 156.71 79.03 151.43 82.36 146.3 87.31 138.8 97.59 124.75 102.95 118.22 108.39 111.97 119.88 100.48 125.95 95.23 132.19 90.24 145.45 81.16 152.48 77.04 159.74 73.08 175.06 65.83 183.12 62.49 188.6 60.25 194.22 58.1 199.96 56.05 205.76 53.92 211.67 51.85 217.7 49.85 223.78 47.76 229.97 45.71 236.25 43.7 242.58 41.59 248.99 39.5 255.48 37.45 262.01 35.28 268.61 33.13 275.26 31.01 281.95 28.78 288.69 26.58 295.47 24.42 302.28 22.16 309.12 19.94 315.98 17.79 322.86 15.56 329.77 13.41 336.68 11.36 343.61 9.26 350.54 7.28 357.46 5.44 364.39 3.59 371.31 1.91 378.21 0.41 385.12 -1.04 392 -2.29 398.84 -3.3"
      stroke-dasharray="3 9" transform="rotate(44.44, 400, 400)"></path>
    <path
      d="M387.44 22.61C393.65 21.65 399.76 20.94 405.77 20.49 414.72 20.11 432.07 20.87 440.45 22.02 448.73 23.63 464.71 28.36 472.43 31.43 480.06 34.9 494.86 43.04 502.07 47.65 506.89 50.83 511.64 54.18 516.34 57.68 521.1 61.19 525.82 64.84 530.53 68.6 535.31 72.34 540.09 76.19 544.9 80.12 549.8 84.01 554.75 87.97 559.75 91.99 564.89 95.96 570.11 99.97 575.42 104.02 580.89 107.99 586.47 112 592.17 116.04 598.06 119.99 604.08 123.97 610.24 127.97 616.57 131.88 623.06 135.81 629.68 139.77 636.46 143.64 643.37 147.54 650.39 151.47 657.53 155.32 664.76 159.2 672.03 163.13 679.37 166.97 686.7 170.87 694 174.82 701.27 178.7 708.44 182.64 715.45 186.65 722.32 190.6 728.96 194.62 735.31 198.72 741.41 202.77 747.14 206.91 752.45 211.13 759.62 217.47 770.64 230.56 774.31 237.33 776.62 244.18 777.32 258.37 775.77 265.71 773.09 273.15 764.94 288.53 759.83 296.48 756.3 301.8 752.62 307.22 748.88 312.74 745.35 318.26 741.92 323.88 738.67 329.58 735.85 335.29 733.35 341.09 731.24 346.98 729.73 352.87 728.72 358.84 728.23 364.91 728.45 370.98 729.23 377.13 730.56 383.37 732.59 389.62 735.1 395.88 738.04 402.15 741.51 408.43 745.27 414.72 749.24 421.02 753.53 427.34 757.86 433.66 762.14 440.01 766.48 446.36 770.61 452.74 774.43 459.13 778.08 465.54 781.28 471.97 783.97 478.42 786.28 484.9 787.98 491.4 789.04 497.92 789.6 504.47 789.47 511.05 788.64 517.66 787.26 524.29 785.19 530.95 782.44 537.64 779.19 544.35 775.31 551.1 770.85 557.86 765.97 564.64 760.59 571.45 754.77 578.26 748.65 585.09 742.19 591.92 735.45 598.74 728.54 605.57 721.45 612.37 714.24 619.14 706.99 625.89 699.7 632.58 692.42 639.21 685.22 645.79 678.1 652.28 671.07 658.65 664.22 664.94 657.51 671.09 650.96 677.08 644.64 682.95 638.5 688.62 632.55 694.08 626.83 699.37 621.31 704.42 615.96 709.19 610.85 713.77 605.9 718.04 601.1 721.99 594.28 727.4 581.44 736.07 575.32 739.28 569.44 741.75 557.83 744.45 552.02 744.73 546.24 744.43 534.32 742.17 528.11 740.38 521.81 738.41 508.54 734.04 501.54 731.87 494.39 730.07 479.32 727.5 471.4 726.93 463.32 727.18 446.42 729.7 437.62 732.01 431.7 734.08 425.66 736.43 419.48 739.04 413.31 742.03 407.01 745.23 400.6 748.6 394.18 752.24 387.74 755.93 381.27 759.61 374.8 763.42 368.31 767.12 361.81 770.66 355.32 774.18 348.82 777.44 342.32 780.4 335.83 783.2 329.35 785.62 322.88 787.62 316.43 789.35 310 790.61 303.6 791.38 297.21 791.81 290.86 791.71 284.56 791.09 278.28 790.1 272.05 788.58 265.87 786.55 259.73 784.15 253.66 781.26 247.65 777.9 241.69 774.23 235.81 770.12 230.02 765.62 224.27 760.87 218.62 755.77 213.08 750.37 207.59 744.79 202.21 738.97 196.95 732.94 191.75 726.8 186.68 720.52 181.74 714.12 176.85 707.7 172.1 701.21 167.5 694.68 162.95 688.19 158.54 681.71 154.27 675.24 150.06 668.87 145.99 662.54 142.06 656.29 138.18 650.15 134.43 644.09 130.82 638.12 127.24 632.3 123.79 626.56 120.46 620.91 117.14 615.42 113.94 610 110.86 604.67 106.27 596.92 97.53 581.94 93.36 574.65 89.21 567.56 81.19 553.56 77.31 546.6 73.41 539.72 65.87 525.82 62.25 518.76 58.62 511.68 51.76 497.15 48.56 489.67 45.43 482.1 39.79 466.47 37.31 458.38 34.98 450.19 31.15 433.25 29.66 424.5 28.76 418.63 28.04 412.65 27.5 406.57 27 400.49 26.68 394.3 26.56 388.01 26.48 381.72 26.59 375.41 26.9 369.08 27.25 362.76 27.8 356.42 28.53 350.08 29.31 343.75 30.27 337.41 31.41 331.08 32.6 324.75 33.96 318.44 35.5 312.15 37.07 305.87 38.81 299.61 40.71 293.39 42.63 287.18 44.7 281.01 46.92 274.89 49.15 268.79 51.51 262.74 54 256.75 56.47 250.79 59.06 244.89 61.76 239.08 64.42 233.3 67.19 227.6 70.04 221.99 72.84 216.42 75.72 210.96 78.67 205.6 81.56 200.29 84.52 195.09 87.54 190.02 92 182.55 101.12 168.37 105.77 161.67 110.4 155.22 119.92 143.15 124.83 137.55 129.78 132.18 140.12 122.28 145.53 117.74 151.06 113.38 162.72 105.38 168.87 101.7 175.19 98.11 188.52 91.42 195.54 88.26 202.74 85.09 217.81 78.95 225.66 75.94 230.98 73.85 236.4 71.79 241.91 69.77 247.47 67.63 253.12 65.52 258.85 63.44 264.61 61.24 270.45 59.07 276.36 56.92 282.3 54.67 288.29 52.46 294.34 50.28 300.41 48.01 306.53 45.8 312.68 43.65 318.85 41.42 325.05 39.29 331.26 37.24 337.49 35.16 343.74 33.2 349.98 31.37 356.24 29.53 362.49 27.86 368.74 26.37 374.99 24.91 381.22 23.65 387.43 22.61"
      stroke-dasharray="5 10" transform="rotate(48.48, 400, 400)"></path>
    <path
      d="M379.62 48.54C388.07 47.2 404.65 45.84 412.77 45.86 423.55 46.39 434.07 47.95 444.33 50.5 454.63 53.5 464.72 57.44 474.64 62.24 484.68 67.37 494.64 73.24 504.58 79.75 514.75 86.41 525.03 93.57 535.48 101.14 546.3 108.65 557.41 116.47 568.85 124.5 580.75 132.33 593.03 140.32 605.66 148.42 618.69 156.24 631.98 164.16 645.38 172.17 658.86 179.89 672.17 187.73 685.04 195.71 697.44 203.42 708.94 211.32 719.23 219.42 728.41 227.33 735.92 235.49 741.51 243.92 745.56 252.23 747.51 260.85 747.32 269.8 745.75 278.67 742.36 287.9 737.41 297.48 731.98 307.02 725.8 316.94 719.35 327.23 713.79 337.49 708.92 348.13 705.18 359.15 703.73 367.46 703.81 384.54 705.42 393.32 707.22 399.21 709.41 405.12 711.94 411.06 714.93 417.01 718.16 422.98 721.58 428.97 729.21 440.98 736.79 453.1 743.78 465.31 750.38 477.56 755.45 489.92 758.63 502.35 760.34 514.83 759.73 527.38 756.8 539.96 752.13 552.56 745.31 565.16 736.59 577.67 726.6 590.13 715.24 602.42 702.88 614.44 690.03 626.26 676.73 637.67 663.29 648.52 650.06 658.98 637.06 668.7 624.44 677.55 612.42 685.79 600.89 692.98 589.88 699.01 579.54 704.29 569.64 708.34 560.09 711.09 551.09 713.16 542.27 714.02 533.55 713.76 525.17 713.12 516.7 711.64 508.08 709.5 499.61 707.55 490.86 705.38 481.77 703.23 472.72 701.93 463.27 701.09 453.4 700.91 443.52 702.09 433.21 704.16 422.46 707.16 417.08 709.2 411.59 711.46 406 713.91 400.41 716.68 394.72 719.61 388.93 722.67 383.14 725.96 377.33 729.27 371.5 732.57 365.67 735.98 359.84 739.3 353.99 742.49 342.33 748.82 330.68 754.15 319.1 758.25 307.6 761.54 296.21 763.2 285.01 763.13 273.92 761.87 263.06 758.8 252.51 754.02 242.11 748.1 232.05 740.67 222.4 731.92 212.94 722.4 203.9 711.91 195.36 700.68 186.98 689.14 179.09 677.18 171.71 665.01 164.45 652.94 157.65 640.86 151.33 628.9 145.02 617.27 139.12 605.84 133.59 594.65 127.96 583.87 122.62 573.3 117.58 562.93 112.31 552.93 107.27 543.04 102.47 533.21 97.4 523.65 92.56 514.06 87.98 504.39 83.17 494.87 78.67 485.19 74.53 475.31 70.28 465.51 66.47 455.45 63.17 445.11 59.89 434.79 57.2 424.17 55.17 413.25 53.81 405.02 52.06 388.17 51.7 379.56 51.62 370.91 52.54 353.63 53.53 345.01 55.14 333.53 57.49 322.12 60.54 310.84 63.74 299.6 67.58 288.52 71.99 277.65 76.42 266.87 81.34 256.34 86.67 246.14 91.89 236.06 97.43 226.34 103.25 217.04 108.84 207.89 114.65 199.2 120.66 191.01 126.39 182.98 132.32 175.46 138.44 168.49 144.33 161.65 150.46 155.34 156.86 149.56 163.11 143.84 169.7 138.59 176.64 133.81 183.55 128.96 190.86 124.47 198.59 120.33 206.37 115.98 214.59 111.86 223.24 107.95 231.98 103.7 241.15 99.57 250.7 95.56 260.35 91.13 270.37 86.78 280.68 82.56 291.07 77.95 301.74 73.5 312.6 69.3 323.52 64.87 334.61 60.8 345.8 57.2 354.21 54.58 371.13 50.22 379.61 48.54"
      stroke-dasharray="2 9" transform="rotate(52.52, 400, 400)"></path>
    <path
      d="M377.61 74.47C388 72.59 398.3 71.6 408.48 71.52 418.69 71.84 428.81 73.1 438.85 75.28 448.95 77.88 459.02 81.36 469.09 85.64 479.29 90.27 489.56 95.62 499.92 101.6 510.49 107.77 521.24 114.47 532.18 121.6 543.39 128.77 554.83 136.27 566.5 144.03 578.42 151.69 590.52 159.54 602.73 167.54 615.04 175.34 627.3 183.27 639.35 191.29 651.19 199.08 662.55 206.97 673.19 214.97 683.18 222.75 692.13 230.66 699.78 238.72 706.38 246.59 711.42 254.65 714.77 262.91 716.9 271.02 717.31 279.39 716.04 288 713.83 296.52 710.28 305.33 705.64 314.44 700.84 323.48 695.6 332.85 690.29 342.54 685.88 352.2 682.11 362.21 679.3 372.55 678.24 382.89 678.55 393.58 680.28 404.63 683.9 415.69 688.61 426.85 694.11 438.1 700.64 449.36 707.19 460.72 713.35 472.13 719.38 483.56 724.28 495.05 727.75 506.54 730.18 518.04 730.78 529.53 729.47 540.94 726.77 552.31 722.19 563.56 715.87 574.59 708.36 585.51 699.42 596.12 689.34 606.34 678.57 616.3 667.06 625.75 655.07 634.57 642.95 642.99 630.68 650.66 618.46 657.46 606.49 663.75 594.74 669.08 583.3 673.38 572.27 677.13 561.57 679.85 551.2 681.54 541.24 682.79 531.53 683.13 522.01 682.63 512.82 682 503.71 680.81 494.62 679.18 485.73 677.89 476.76 676.51 467.66 675.24 458.66 674.78 449.45 674.74 440.03 675.25 430.62 676.91 420.96 679.27 411.03 682.35 401.09 686.59 390.89 691.44 380.42 696.74 369.96 702.8 359.5 708.77 349.1 714.41 338.71 720.1 328.41 724.98 318.24 728.85 308.12 732.15 298.17 734.11 288.45 734.65 278.81 734.26 269.43 732.34 260.37 728.95 251.41 724.59 242.8 718.85 234.57 711.88 226.46 704.16 218.75 695.43 211.46 685.88 204.26 675.9 197.47 665.36 191.11 654.41 184.76 643.37 178.8 632.12 173.21 620.79 167.55 609.58 162.2 598.41 157.14 587.34 151.91 576.52 146.91 565.82 142.13 555.26 137.1 544.97 132.25 534.79 127.59 524.71 122.67 514.85 117.93 505.03 113.42 495.24 108.7 485.59 104.24 475.89 100.12 466.12 95.89 456.44 92.07 446.64 88.72 436.71 85.41 426.81 82.66 416.74 80.54 406.51 78.59 396.28 77.34 385.87 76.84 375.3 76.61 364.73 77.16 354.25 78.48 343.9 80.05 333.55 82.35 323.35 85.34 313.33 88.5 303.35 92.27 293.57 96.6 284.06 100.97 274.61 105.81 265.44 111.04 256.61 116.19 247.87 121.65 239.48 127.37 231.51 132.88 223.62 138.6 216.16 144.49 209.15 150.12 202.23 155.91 195.75 161.86 189.74 167.55 183.77 173.43 178.23 179.5 173.12 185.37 167.97 191.49 163.2 197.87 158.78 204.14 154.23 210.73 149.94 217.63 145.92 224.51 141.63 231.74 137.53 239.33 133.57 246.94 129.28 254.92 125.08 263.24 120.98 271.61 116.51 280.32 112.13 289.34 107.87 298.41 103.29 307.76 98.89 317.37 94.74 327 90.42 336.86 86.45 346.91 82.95 356.97 79.48 367.21 76.62 377.6 74.47"
      stroke-dasharray="5 1" transform="rotate(56.56, 400, 400)"></path>
    <path
      d="M381.99 100.4C391.62 98.53 401.29 97.48 410.97 97.24 420.67 97.36 430.43 98.34 440.22 100.15 450.07 102.33 460.01 105.33 470.03 109.09 480.15 113.16 490.39 117.93 500.77 123.32 511.27 128.92 521.93 135.05 532.71 141.64 543.63 148.31 554.65 155.36 565.74 162.7 576.88 170.02 588 177.58 598.98 185.32 609.85 192.95 620.42 200.73 630.55 208.63 640.3 216.37 649.38 224.22 657.62 232.17 665.18 239.95 671.66 247.84 676.93 255.85 681.3 263.7 684.33 271.69 685.94 279.82 686.67 287.83 686.06 296.02 684.18 304.4 681.74 312.68 678.36 321.19 674.25 329.92 670.22 338.6 665.96 347.52 661.74 356.71 658.39 365.86 655.6 375.3 653.59 385.01 653.03 394.71 653.53 404.71 655.14 414.99 658.27 425.28 662.24 435.63 666.84 446.01 672.33 456.39 677.89 466.8 683.2 477.2 688.56 487.6 693.1 497.97 696.59 508.26 699.41 518.53 700.8 528.69 700.7 538.67 699.55 548.57 696.82 558.24 692.59 567.61 687.33 576.82 680.73 585.65 672.96 594.01 664.46 602.12 655.07 609.68 645 616.59 634.58 623.17 623.74 629.03 612.67 634.1 601.58 638.78 590.44 642.65 579.37 645.66 568.47 648.31 557.73 650.14 547.18 651.18 536.88 652 526.78 652.16 516.87 651.74 507.2 651.35 497.67 650.6 488.26 649.6 479.02 649 469.84 648.4 460.67 647.94 451.61 648.21 442.51 648.85 433.36 649.92 424.25 651.94 415.04 654.5 405.73 657.59 396.44 661.6 387.02 666.05 377.5 670.81 367.98 676.19 358.58 681.46 349.32 686.43 340.08 691.48 330.99 695.88 322.11 699.46 313.25 702.66 304.61 704.77 296.23 705.73 287.88 706 279.82 705 272.07 702.75 264.37 699.73 257 695.5 249.97 690.15 242.99 684.13 236.35 677.14 230.07 669.32 223.79 661.03 217.84 652.09 212.24 642.63 206.57 632.95 201.19 622.92 196.1 612.65 190.87 602.36 185.88 591.94 181.1 581.49 176.11 571.13 171.3 560.78 166.65 550.5 161.75 540.37 156.99 530.3 152.4 520.31 147.55 510.48 142.88 500.7 138.41 490.99 133.76 481.39 129.36 471.81 125.26 462.24 121.09 452.76 117.31 443.24 113.97 433.71 110.69 424.21 107.94 414.66 105.8 405.06 103.84 395.47 102.55 385.81 101.99 376.11 101.7 366.41 102.18 356.89 103.39 347.56 104.88 338.24 107.07 329.13 109.91 320.26 112.96 311.41 116.59 302.81 120.76 294.5 125.01 286.21 129.71 278.23 134.8 270.59 139.84 262.98 145.19 255.73 150.79 248.84 156.24 241.99 161.89 235.52 167.7 229.44 173.29 223.36 179.03 217.67 184.89 212.35 190.51 207 196.27 201.99 202.18 197.32 207.87 192.55 213.74 188.05 219.8 183.83 225.7 179.42 231.84 175.21 238.22 171.19 244.5 166.91 251.07 162.75 257.92 158.72 264.71 154.37 271.82 150.11 279.24 145.94 286.64 141.46 294.35 137.08 302.37 132.83 310.37 128.33 318.68 124.03 327.28 119.98 335.86 115.8 344.73 111.98 353.86 108.6 362.98 105.27 372.36 102.51 381.99 100.4"
      stroke-dasharray="3 11" transform="rotate(60.599999999999994, 400, 400)"></path>
    <path
      d="M391.51 126.32C400.48 124.5 409.54 123.4 418.68 123.03 427.84 122.97 437.11 123.67 446.47 125.12 455.87 126.91 465.38 129.42 474.97 132.63 484.63 136.13 494.39 140.28 504.22 145.02 514.1 149.98 524.05 155.46 534.01 161.39 543.98 167.46 553.92 173.91 563.74 180.69 573.48 187.5 583.01 194.59 592.23 201.9 601.22 209.17 609.75 216.62 617.7 224.22 625.23 231.73 632.03 239.37 637.97 247.11 643.31 254.75 647.67 262.5 650.97 270.34 653.58 278.07 655.11 285.91 655.52 293.87 655.35 301.73 654.19 309.72 652.12 317.84 649.79 325.89 646.82 334.1 643.39 342.46 640.19 350.78 636.9 359.28 633.72 367.96 631.31 376.62 629.37 385.47 628.04 394.53 627.88 403.57 628.53 412.82 629.99 422.27 632.67 431.73 635.99 441.16 639.76 450.55 644.31 459.93 648.92 469.26 653.38 478.5 658 487.72 662.05 496.83 665.34 505.77 668.24 514.67 670.08 523.38 670.78 531.83 670.74 540.19 669.44 548.25 666.91 555.94 663.56 563.49 659.03 570.61 653.42 577.25 647.13 583.68 639.94 589.57 631.98 594.87 623.57 599.91 614.6 604.32 605.2 608.07 595.6 611.56 585.75 614.38 575.75 616.54 565.74 618.5 555.69 619.84 545.68 620.61 535.76 621.32 525.92 621.57 516.2 621.43 506.61 621.44 497.13 621.23 487.77 620.89 478.54 620.96 469.39 621.08 460.34 621.33 451.37 622.22 442.46 623.39 433.6 624.9 424.79 627.17 416 629.83 407.23 632.85 398.48 636.6 389.73 640.65 381 644.88 372.27 649.62 363.75 654.22 355.46 658.54 347.16 662.98 339.09 666.88 331.27 670.12 323.45 673.12 315.88 675.26 308.58 676.47 301.29 677.19 294.27 676.88 287.55 675.55 280.82 673.62 274.39 670.67 268.26 666.75 262.1 662.26 256.23 656.89 250.65 650.72 245 644.11 239.62 636.84 234.49 628.99 229.25 620.87 224.23 612.31 219.41 603.41 214.43 594.37 209.61 585.1 204.95 575.68 200.09 566.23 195.35 556.7 190.75 547.13 185.91 537.61 181.2 528.08 176.63 518.59 171.85 509.17 167.24 499.79 162.82 490.46 158.26 481.2 153.95 471.98 149.93 462.81 145.87 453.7 142.18 444.62 138.92 435.57 135.73 426.56 133.06 417.56 130.94 408.6 129.02 399.65 127.73 390.72 127.13 381.82 126.8 372.92 127.19 364.26 128.28 355.85 129.63 347.45 131.66 339.29 134.3 331.4 137.16 323.51 140.58 315.9 144.52 308.59 148.56 301.27 153.04 294.26 157.91 287.56 162.77 280.86 167.95 274.47 173.38 268.42 178.72 262.35 184.26 256.6 189.98 251.17 195.52 245.71 201.2 240.54 207.01 235.67 212.61 230.72 218.34 226.04 224.18 221.6 229.82 217.04 235.59 212.67 241.51 208.51 247.25 204.15 253.16 199.94 259.26 195.87 265.22 191.56 271.4 187.35 277.81 183.24 284.11 178.86 290.68 174.57 297.49 170.38 304.24 165.93 311.27 161.6 318.57 157.43 325.84 153.06 333.39 148.9 341.22 145 349.03 141.02 357.12 137.38 365.51 134.16 373.88 131.01 382.54 128.37 391.5 126.33"
      stroke-dasharray="9 11" transform="rotate(64.64, 400, 400)"></path>
    <path
      d="M403.45 152.25C411.75 150.49 420.15 149.37 428.63 148.89 437.12 148.67 445.7 149.13 454.34 150.23 463 151.63 471.74 153.67 480.5 156.33 489.29 159.26 498.09 162.77 506.88 166.82 515.66 171.09 524.38 175.85 533 181.05 541.55 186.41 549.93 192.15 558.07 198.23 566.05 204.39 573.7 210.84 580.94 217.53 587.91 224.25 594.36 231.17 600.2 238.26 605.66 245.33 610.42 252.55 614.41 259.89 617.93 267.18 620.63 274.58 622.46 282.08 623.84 289.51 624.38 297.05 624.1 304.67 623.49 312.23 622.18 319.89 620.25 327.65 618.27 335.35 615.88 343.16 613.21 351.08 610.84 358.96 608.46 366.96 606.21 375.06 604.62 383.15 603.4 391.36 602.64 399.69 602.79 408 603.53 416.44 604.85 424.98 607.12 433.52 609.83 441.97 612.87 450.28 616.56 458.6 620.29 466.77 623.93 474.79 627.79 482.78 631.26 490.58 634.19 498.16 636.93 505.69 638.91 512.97 640.05 519.94 640.71 526.84 640.41 533.4 639.14 539.58 637.28 545.65 634.45 551.29 630.69 556.49 626.37 561.53 621.21 566.09 615.3 570.14 608.96 574.03 602 577.4 594.52 580.24 586.77 582.94 578.62 585.12 570.18 586.81 561.62 588.43 552.86 589.62 543.99 590.39 535.09 591.23 526.14 591.75 517.19 592.02 508.28 592.51 499.4 592.86 490.58 593.15 481.82 593.82 473.13 594.56 464.52 595.4 455.97 596.78 447.49 598.36 439.1 600.17 430.74 602.58 422.46 605.24 414.26 608.14 406.07 611.6 397.95 615.23 389.92 618.96 381.89 623.08 374.11 627.05 366.6 630.76 359.08 634.6 351.82 637.99 344.81 640.86 337.79 643.59 331.03 645.64 324.53 646.97 318.01 647.96 311.74 648.14 305.73 647.49 299.68 646.41 293.88 644.48 288.33 641.75 282.71 638.57 277.32 634.62 272.15 629.96 266.89 624.92 261.82 619.24 256.94 613.01 251.92 606.49 247.07 599.5 242.37 592.11 237.5 584.55 232.75 576.68 228.13 568.57 223.32 560.37 218.61 551.99 214.02 543.49 209.25 534.97 204.59 526.37 200.07 517.73 195.39 509.11 190.87 500.48 186.56 491.86 182.15 483.27 177.99 474.7 174.11 466.17 170.23 457.68 166.71 449.22 163.59 440.82 160.56 432.44 158.01 424.1 155.98 415.84 154.15 407.58 152.9 399.38 152.27 391.26 151.91 383.13 152.21 375.27 153.15 367.67 154.35 360.07 156.16 352.73 158.56 345.66 161.16 338.58 164.3 331.77 167.91 325.24 171.66 318.7 175.84 312.42 180.39 306.43 184.98 300.41 189.89 294.66 195.06 289.19 200.19 283.67 205.54 278.41 211.07 273.41 216.49 268.34 222.07 263.51 227.77 258.9 233.33 254.19 239 249.67 244.78 245.35 250.4 240.88 256.13 236.56 261.97 232.4 267.65 228.05 273.47 223.81 279.42 219.69 285.25 215.36 291.23 211.13 297.38 206.99 303.43 202.63 309.67 198.37 316.11 194.22 322.47 189.88 329.06 185.68 335.88 181.64 342.64 177.47 349.65 173.51 356.91 169.81 364.14 166.07 371.63 162.66 379.38 159.64 387.12 156.69 395.14 154.21 403.44 152.25"
      stroke-dasharray="9 3" transform="rotate(68.68, 400, 400)"></path>
    <path
      d="M414.41 178.18C421.98 176.5 429.59 175.39 437.23 174.83 444.87 174.48 452.54 174.71 460.21 175.51 467.88 176.54 475.54 178.13 483.15 180.26 490.74 182.62 498.26 185.5 505.67 188.85 513.03 192.41 520.24 196.42 527.25 200.83 534.15 205.4 540.8 210.35 547.13 215.62 553.29 221 559.07 226.67 564.41 232.59 569.51 238.57 574.11 244.78 578.15 251.17 581.9 257.59 585.04 264.17 587.54 270.88 589.74 277.59 591.29 284.43 592.19 291.36 592.83 298.27 592.85 305.28 592.3 312.37 591.62 319.43 590.47 326.57 588.91 333.77 587.43 340.96 585.69 348.21 583.8 355.52 582.22 362.82 580.67 370.18 579.22 377.59 578.32 384.99 577.68 392.45 577.36 399.95 577.75 407.45 578.53 415 579.71 422.56 581.6 430.13 583.78 437.53 586.18 444.76 589.09 451.98 592.03 459.01 594.9 465.82 598 472.62 600.83 479.18 603.3 485.49 606.65 494.75 610.03 511.69 609.75 519.27 608.15 526.37 600.6 538.51 594.78 543.5 590.31 546.61 585.25 549.32 579.67 551.62 573.82 553.88 567.52 555.77 560.86 557.3 554.02 558.85 546.89 560.1 539.54 561.07 532.1 562.16 524.5 563.04 516.79 563.77 509.05 564.73 501.24 565.6 493.41 566.45 485.59 567.62 477.76 568.85 469.97 570.14 462.19 571.86 454.45 573.71 446.78 575.7 439.12 578.14 431.52 580.73 424.01 583.44 416.5 586.57 409.06 589.79 401.72 593.03 394.37 596.57 387.27 599.94 380.43 603.09 373.57 606.35 366.95 609.24 360.58 611.72 354.18 614.13 348.01 616.01 342.07 617.33 333.21 618.67 316.48 617.7 308.56 615.33 303.27 613.21 298.15 610.44 293.2 607.07 288.15 603.4 283.24 599.16 278.48 594.41 273.59 589.41 268.81 583.95 264.16 578.1 259.36 572.06 254.66 565.68 250.07 559.02 245.32 552.24 240.68 545.22 236.15 538.03 231.48 530.77 226.94 523.37 222.54 515.87 218.04 508.35 213.7 500.75 209.58 493.12 205.4 485.48 201.46 477.83 197.82 470.18 194.19 462.54 190.9 454.91 188 447.33 185.19 439.75 182.82 432.21 180.93 424.73 179.22 417.25 178.04 409.83 177.42 402.49 177.03 395.14 177.24 388.04 178.02 381.18 179.04 374.32 180.61 367.7 182.71 361.32 185.01 354.93 187.79 348.77 191.03 342.86 194.4 336.92 198.18 331.21 202.31 325.74 206.52 320.23 211.05 314.93 215.84 309.86 220.64 304.73 225.67 299.8 230.89 295.08 236.07 290.27 241.41 285.64 246.89 281.18 252.29 276.62 257.81 272.2 263.43 267.93 268.95 263.53 274.57 259.24 280.29 255.08 285.9 250.76 291.61 246.54 297.43 242.43 303.15 238.14 308.99 233.95 314.95 229.86 320.82 225.61 326.84 221.47 333 217.45 339.1 213.3 345.36 209.29 351.79 205.47 358.18 201.55 364.75 197.86 371.51 194.42 378.25 190.97 385.19 187.82 392.34 185.04 399.47 182.32 406.83 180.02 414.4 178.18"
      stroke-dasharray="9 7" transform="rotate(72.72, 400, 400)"></path>
    <path
      d="M421.25 204.11C427.97 202.55 434.67 201.46 441.32 200.85 447.97 200.4 454.56 200.44 461.08 200.96 467.58 201.66 473.99 202.84 480.27 204.47 486.53 206.29 492.64 208.56 498.56 211.24 504.42 214.09 510.07 217.34 515.46 220.95 520.76 224.7 525.76 228.8 530.43 233.2 534.96 237.71 539.13 242.5 542.88 247.54 546.46 252.66 549.61 258 552.29 263.53 554.79 269.11 556.82 274.86 558.35 280.75 559.71 286.68 560.6 292.73 561.03 298.88 561.34 305.05 561.24 311.31 560.75 317.64 560.25 323.98 559.45 330.39 558.39 336.85 557.47 343.3 556.39 349.81 555.23 356.34 554.36 362.88 553.5 369.45 552.72 376.03 552.38 382.61 552.2 389.2 552.22 395.79 552.76 402.38 553.54 408.96 554.56 415.51 556.11 422.06 557.83 428.43 559.66 434.58 561.89 440.74 564.12 446.68 566.29 452.39 569.78 460.81 575.59 476.38 577.58 483.46 578.82 496.16 574.39 512.06 570.65 516.21 565.99 520.04 553.94 526.26 546.71 528.74 541.61 530.38 536.18 531.81 530.47 533.06 524.65 534.45 518.6 535.71 512.37 536.86 506.08 538.21 499.64 539.52 493.1 540.8 486.53 542.34 479.89 543.91 473.2 545.51 466.5 547.43 459.78 549.41 453.06 551.46 446.34 553.83 439.63 556.27 432.95 558.75 426.27 561.54 419.62 564.33 413.02 567.1 406.42 570.09 400.01 572.91 393.8 575.52 387.59 578.23 381.56 580.64 375.72 582.72 367.02 585.6 350.45 589.04 342.55 589.46 334.72 589.1 319.67 585.45 312.41 582.2 307.53 579.65 302.76 576.63 298.09 573.16 293.33 569.5 288.66 565.43 284.09 560.99 279.41 556.39 274.83 551.46 270.35 546.23 265.76 540.9 261.28 535.3 256.91 529.49 252.47 523.6 248.15 517.54 243.98 511.32 239.76 505.07 235.71 498.69 231.87 492.23 228.03 485.74 224.42 479.19 221.08 472.6 217.79 466 214.81 459.38 212.18 452.75 209.65 446.13 207.51 439.5 205.8 432.9 204.25 426.31 203.16 419.73 202.56 413.2 202.16 406.67 202.29 400.34 202.91 394.2 203.74 388.06 205.05 382.11 206.82 376.35 208.77 370.58 211.16 365 213.95 359.61 216.88 354.2 220.18 348.96 223.81 343.9 227.53 338.81 231.56 333.88 235.85 329.12 240.18 324.3 244.74 319.64 249.51 315.12 254.28 310.53 259.22 306.08 264.31 301.75 269.37 297.34 274.57 293.03 279.87 288.85 285.13 284.55 290.49 280.36 295.94 276.27 301.33 272.06 306.82 267.94 312.39 263.92 317.89 259.78 323.5 255.74 329.19 251.81 334.82 247.76 340.56 243.84 346.39 240.05 352.18 236.17 358.08 232.45 364.1 228.92 370.08 225.33 376.19 221.96 382.42 218.83 388.63 215.71 394.97 212.87 401.44 210.35 407.91 207.89 414.51 205.8 421.23 204.11"
      stroke-dasharray="7 10" transform="rotate(76.76, 400, 400)"></path>
    <path
      d="M422.02 230.04C433.57 227.3 444.74 226.18 455.37 226.61 465.95 227.59 475.89 230.14 485.02 234.1 493.94 238.58 501.89 244.39 508.66 251.32 515.09 258.63 520.22 266.93 523.92 276 527.27 285.3 529.25 295.24 529.9 305.62 530.5 316.12 530.1 326.99 528.93 338.04 528.35 349.15 527.52 360.42 526.71 371.67 527.17 382.95 528.06 394.21 529.42 405.27 532.26 416.34 535.25 426.66 538.14 436.14 541.77 445.59 544.66 454.17 546.54 461.82 548.34 469.41 548.64 476.06 547.37 481.74 545.55 487.43 542.03 492.23 536.94 496.17 531.26 500.31 524.16 503.79 515.9 506.71 507.25 510.13 497.66 513.26 487.39 516.19 476.96 519.92 466.04 523.67 454.82 527.42 443.58 532.08 432.12 536.73 420.61 541.17 409.09 546.25 398.03 550.55 387.49 553.89 376.9 557.26 366.74 559.28 357.04 559.87 347.2 560.05 337.72 558.63 328.64 555.65 319.33 552.14 310.33 547.11 301.7 540.76 292.82 533.96 284.29 526 276.24 517.11 268.04 507.96 260.4 498.05 253.51 487.62 246.71 477.09 240.85 466.15 236.16 455.01 231.87 443.85 228.98 432.54 227.7 421.21 227.09 409.89 228.22 399.07 230.93 388.82 234.25 378.52 239.02 368.73 245.03 359.47 251.42 350.09 258.87 341.15 267.13 332.67 275.54 323.98 284.62 315.65 294.19 307.72 303.72 299.5 313.68 291.6 323.93 284.1 334.09 276.3 344.56 268.9 355.27 262.04 365.9 255 376.82 248.6 387.96 243.06 399.07 237.59 410.46 233.16 422.01 230.04"
      stroke-dasharray="10 7" transform="rotate(80.80000000000001, 400, 400)"></path>
    <path
      d="M416.51 255.96C426.01 253.54 434.99 252.4 443.34 252.49 451.65 252.97 459.26 254.68 466.08 257.53 472.77 260.76 478.6 265.07 483.46 270.3 488.16 275.84 491.87 282.23 494.57 289.3 497.17 296.58 498.84 304.45 499.64 312.75 500.59 321.17 500.89 329.95 500.69 338.94 501 347.99 501.11 357.2 501.14 366.42 502.05 375.66 503.09 384.89 504.28 393.95 506.44 403.02 508.54 411.47 510.44 419.25 512.91 427.02 514.84 434.12 516.05 440.5 517.52 449.74 514.81 464.96 510.36 471.12 506.69 475.25 501.89 478.93 496.08 482.22 490.02 485.9 483.07 489.34 475.39 492.57 467.57 496.35 459.14 500.03 450.23 503.55 441.29 507.66 431.94 511.61 422.31 515.24 412.68 519.31 403.21 522.67 394 525.25 384.77 527.91 375.76 529.56 367.01 530.14 358.2 530.54 349.61 529.75 341.3 527.81 332.88 525.57 324.71 522.17 316.88 517.71 308.95 512.97 301.36 507.25 294.23 500.69 287.1 493.95 280.5 486.47 274.6 478.42 268.85 470.27 263.91 461.64 259.99 452.66 256.41 443.66 253.97 434.36 252.85 424.87 252.23 415.38 253.02 406.15 255.09 397.25 257.64 388.33 261.39 379.7 266.17 371.41 271.3 363.05 277.36 354.96 284.15 347.21 291.14 339.32 298.76 331.7 306.86 324.41 315.03 316.95 323.61 309.78 332.47 302.99 341.34 296.05 350.47 289.5 359.74 283.47 369.02 277.37 378.45 271.87 387.94 267.12 397.44 262.46 407 258.68 416.51 255.96"
      stroke-dasharray="6 3" transform="rotate(84.84, 400, 400)"></path>
    <path
      d="M406.28 281.89C413.71 279.83 420.62 278.74 426.96 278.6 436.13 279.21 451.23 285.25 457.05 290.44 462.12 296.64 468.98 312.29 470.97 321.4 472.3 327.7 473.21 334.34 473.76 341.2 474.69 348.11 475.42 355.2 475.98 362.35 477.1 369.53 478.16 376.74 479.14 383.88 480.71 391.02 482.08 397.74 483.2 404 485.25 413.17 487.11 429.23 486.48 436.17 485.03 442.81 477.93 454.47 472.3 459.65 468.16 463.28 463.29 466.69 457.77 469.87 452.17 473.38 445.97 476.72 439.24 479.82 432.5 483.26 425.27 486.47 417.64 489.32 410.02 492.43 402.36 494.95 394.78 496.83 387.2 498.8 379.67 500.02 372.28 500.47 364.88 500.86 357.6 500.41 350.53 499.13 343.43 497.72 336.54 495.46 329.93 492.41 323.33 489.22 317.04 485.26 311.17 480.62 305.36 475.87 300.03 470.48 295.3 464.55 290.72 458.56 286.81 452.07 283.71 445.18 280.88 438.28 278.93 431 277.99 423.42 277.41 415.85 277.9 408.34 279.37 400.98 281.17 393.61 283.91 386.36 287.47 379.31 291.29 372.23 295.86 365.3 301.05 358.6 306.42 351.84 312.35 345.27 318.7 338.97 325.16 332.6 331.98 326.49 339.06 320.72 346.2 314.89 353.56 309.42 361.02 304.41 368.52 299.4 376.11 294.9 383.69 291.03 391.28 287.24 398.85 284.15 406.28 281.89"
      stroke-dasharray="8 8" transform="rotate(88.88, 400, 400)"></path>
    <path
      d="M394.26 307.82C405.09 304.66 414.37 304.33 421.86 306.46 429.33 309.11 435.11 314.11 439.13 320.89 443.44 328.02 446.42 336.71 448.17 346.31 450.84 356.04 452.82 366.5 453.99 377.1 456.44 387.7 457.71 397.41 457.67 405.99 458.15 414.67 456.71 422.42 453.3 429.1 449.83 436.2 444.17 442.55 436.53 447.96 428.77 454.06 419.12 459.37 407.94 463.39 396.76 467.98 385.18 470.54 373.87 471.03 362.6 471.54 351.62 469.69 341.56 465.65 331.66 461.4 322.84 454.99 315.81 446.76 309.25 438.42 304.8 428.43 303.13 417.17 302.33 405.91 304.52 394.5 309.14 383.47 314.43 372.41 321.88 361.67 330.75 351.75 339.99 341.78 350.38 332.65 361.22 324.97 372.19 317.38 383.44 311.43 394.26 307.82"
      stroke-dasharray="3 2" transform="rotate(92.92, 400, 400)"></path>
    <path
      d="M383.88 333.75C394.02 331.24 409.85 334.72 415.46 340.05 419.06 344.15 421.89 349.34 423.86 355.3 426.25 361.3 427.97 367.97 428.85 375.02 430.27 382.06 430.67 388.81 430.11 395.02 429.84 401.29 428.39 407.13 425.79 412.33 423.26 417.72 419.44 422.59 414.44 426.71 409.43 431.11 403.22 434.81 395.97 437.46 388.72 440.36 381.17 441.85 373.76 441.99 366.41 442.2 359.25 440.94 352.75 438.34 346.39 435.7 340.77 431.68 336.35 426.47 332.2 421.21 329.37 414.79 328.28 407.39 327.59 399.99 328.75 392.34 331.41 384.85 334.4 377.37 338.77 370.05 344.12 363.29 349.66 356.55 356.04 350.4 362.83 345.26 369.68 340.2 376.84 336.22 383.88 333.75"
      stroke-dasharray="9 3" transform="rotate(96.96, 400, 400)"></path>
  </g>
</svg>