<svg xmlns="http://www.w3.org/2000/svg" version="1.1" xmlns:xlink="http://www.w3.org/1999/xlink"
  xmlns:svgjs="http://svgjs.dev/svgjs" viewBox="0 0 800 800">
  <g fill="#a2e8ff" transform="matrix(2.7,0,0,2.7,-677.45,-682.5500000000002)">
    <circle r="0.5" cx="405" cy="400"></circle>
    <circle r="0.5" cx="405" cy="401"></circle>
    <circle r="0.5" cx="405" cy="402"></circle>
    <circle r="0.5" cx="405" cy="403"></circle>
    <circle r="0.5" cx="404" cy="404"></circle>
    <circle r="0.5" cx="403" cy="405"></circle>
    <circle r="0.5" cx="402" cy="406"></circle>
    <circle r="0.5" cx="401" cy="406"></circle>
    <circle r="0.5" cx="400" cy="407"></circle>
    <circle r="0.5" cx="398" cy="407"></circle>
    <circle r="0.5" cx="397" cy="406"></circle>
    <circle r="0.5" cx="396" cy="406"></circle>
    <circle r="0.5" cx="395" cy="405"></circle>
    <circle r="0.5" cx="393" cy="404"></circle>
    <circle r="0.5" cx="393" cy="403"></circle>
    <circle r="0.5" cx="392" cy="401"></circle>
    <circle r="0.5" cx="392" cy="400"></circle>
    <circle r="0.5" cx="392" cy="398"></circle>
    <circle r="0.5" cx="392" cy="396"></circle>
    <circle r="0.5" cx="393" cy="395"></circle>
    <circle r="0.5" cx="394" cy="393"></circle>
    <circle r="0.5" cx="395" cy="392"></circle>
    <circle r="0.5" cx="397" cy="391"></circle>
    <circle r="0.5" cx="399" cy="390"></circle>
    <circle r="0.5" cx="401" cy="390"></circle>
    <circle r="0.5" cx="403" cy="390"></circle>
    <circle r="0.5" cx="405" cy="391"></circle>
    <circle r="0.5" cx="407" cy="392"></circle>
    <circle r="0.5" cx="408" cy="393"></circle>
    <circle r="0.5" cx="410" cy="395"></circle>
    <circle r="0.5" cx="411" cy="397"></circle>
    <circle r="0.5" cx="411" cy="399"></circle>
    <circle r="0.5" cx="411" cy="401"></circle>
    <circle r="0.5" cx="411" cy="404"></circle>
    <circle r="0.5" cx="410" cy="406"></circle>
    <circle r="0.5" cx="409" cy="408"></circle>
    <circle r="0.5" cx="407" cy="410"></circle>
    <circle r="0.5" cx="405" cy="411"></circle>
    <circle r="0.5" cx="403" cy="412"></circle>
    <circle r="0.5" cx="401" cy="413"></circle>
    <circle r="0.5" cx="398" cy="413"></circle>
    <circle r="0.5" cx="396" cy="412"></circle>
    <circle r="0.5" cx="393" cy="411"></circle>
    <circle r="0.5" cx="391" cy="410"></circle>
    <circle r="0.5" cx="389" cy="408"></circle>
    <circle r="0.5" cx="387" cy="406"></circle>
    <circle r="0.5" cx="386" cy="403"></circle>
    <circle r="0.5" cx="386" cy="400"></circle>
    <circle r="0.5" cx="386" cy="397"></circle>
    <circle r="0.5" cx="386" cy="395"></circle>
    <circle r="0.5" cx="387" cy="392"></circle>
    <circle r="0.5" cx="389" cy="389"></circle>
    <circle r="0.5" cx="391" cy="387"></circle>
    <circle r="0.5" cx="394" cy="386"></circle>
    <circle r="0.5" cx="397" cy="385"></circle>
    <circle r="0.5" cx="400" cy="384"></circle>
    <circle r="0.5" cx="403" cy="384"></circle>
    <circle r="0.5" cx="406" cy="385"></circle>
    <circle r="0.5" cx="409" cy="386"></circle>
    <circle r="0.5" cx="412" cy="388"></circle>
    <circle r="0.5" cx="414" cy="391"></circle>
    <circle r="0.5" cx="416" cy="394"></circle>
    <circle r="0.5" cx="417" cy="397"></circle>
    <circle r="0.5" cx="418" cy="401"></circle>
    <circle r="0.5" cx="417" cy="404"></circle>
    <circle r="0.5" cx="416" cy="408"></circle>
    <circle r="0.5" cx="415" cy="411"></circle>
    <circle r="0.5" cx="412" cy="414"></circle>
    <circle r="0.5" cx="410" cy="416"></circle>
    <circle r="0.5" cx="406" cy="418"></circle>
    <circle r="0.5" cx="403" cy="419"></circle>
    <circle r="0.5" cx="399" cy="419"></circle>
    <circle r="0.5" cx="395" cy="419"></circle>
    <circle r="0.5" cx="391" cy="418"></circle>
    <circle r="0.5" cx="388" cy="416"></circle>
    <circle r="0.5" cx="385" cy="413"></circle>
    <circle r="0.5" cx="382" cy="410"></circle>
    <circle r="0.5" cx="381" cy="406"></circle>
    <circle r="0.5" cx="380" cy="402"></circle>
    <circle r="0.5" cx="379" cy="398"></circle>
    <circle r="0.5" cx="380" cy="394"></circle>
    <circle r="0.5" cx="381" cy="390"></circle>
    <circle r="0.5" cx="384" cy="386"></circle>
    <circle r="0.5" cx="386" cy="383"></circle>
    <circle r="0.5" cx="390" cy="381"></circle>
    <circle r="0.5" cx="394" cy="379"></circle>
    <circle r="1" cx="398" cy="378"></circle>
    <circle r="1" cx="403" cy="378"></circle>
    <circle r="1" cx="407" cy="379"></circle>
    <circle r="1" cx="411" cy="380"></circle>
    <circle r="1" cx="415" cy="383"></circle>
    <circle r="1" cx="418" cy="386"></circle>
    <circle r="1" cx="421" cy="390"></circle>
    <circle r="1" cx="423" cy="394"></circle>
    <circle r="1" cx="424" cy="399"></circle>
    <circle r="1" cx="424" cy="404"></circle>
    <circle r="1" cx="423" cy="408"></circle>
    <circle r="1" cx="421" cy="413"></circle>
    <circle r="1" cx="418" cy="417"></circle>
    <circle r="1" cx="414" cy="420"></circle>
    <circle r="1" cx="410" cy="423"></circle>
    <circle r="1" cx="406" cy="425"></circle>
    <circle r="1" cx="401" cy="425"></circle>
    <circle r="1" cx="395" cy="425"></circle>
    <circle r="1" cx="390" cy="424"></circle>
    <circle r="1" cx="386" cy="422"></circle>
    <circle r="1" cx="382" cy="419"></circle>
    <circle r="1" cx="378" cy="415"></circle>
    <circle r="1" cx="375" cy="410"></circle>
    <circle r="1" cx="374" cy="405"></circle>
    <circle r="1" cx="373" cy="400"></circle>
    <circle r="1" cx="373" cy="394"></circle>
    <circle r="1" cx="375" cy="389"></circle>
    <circle r="1" cx="377" cy="384"></circle>
    <circle r="1" cx="381" cy="380"></circle>
    <circle r="1" cx="385" cy="376"></circle>
    <circle r="1" cx="390" cy="374"></circle>
    <circle r="1" cx="395" cy="372"></circle>
    <circle r="1" cx="401" cy="371"></circle>
    <circle r="1" cx="407" cy="372"></circle>
    <circle r="1" cx="412" cy="374"></circle>
    <circle r="1" cx="417" cy="377"></circle>
    <circle r="1" cx="422" cy="380"></circle>
    <circle r="1" cx="425" cy="385"></circle>
    <circle r="1" cx="428" cy="390"></circle>
    <circle r="1" cx="430" cy="396"></circle>
    <circle r="1" cx="430" cy="402"></circle>
    <circle r="1" cx="429" cy="408"></circle>
    <circle r="1" cx="427" cy="414"></circle>
    <circle r="1" cx="424" cy="419"></circle>
    <circle r="1" cx="420" cy="424"></circle>
    <circle r="1" cx="415" cy="427"></circle>
    <circle r="1" cx="409" cy="430"></circle>
    <circle r="1" cx="403" cy="431"></circle>
    <circle r="1" cx="397" cy="432"></circle>
    <circle r="1" cx="391" cy="431"></circle>
    <circle r="1" cx="385" cy="428"></circle>
    <circle r="1" cx="379" cy="425"></circle>
    <circle r="1" cx="375" cy="420"></circle>
    <circle r="1" cx="371" cy="415"></circle>
    <circle r="1" cx="368" cy="409"></circle>
    <circle r="1" cx="367" cy="402"></circle>
    <circle r="1" cx="367" cy="396"></circle>
    <circle r="1" cx="368" cy="389"></circle>
    <circle r="1" cx="371" cy="383"></circle>
    <circle r="1" cx="375" cy="377"></circle>
    <circle r="1" cx="379" cy="373"></circle>
    <circle r="1" cx="385" cy="369"></circle>
    <circle r="1" cx="392" cy="366"></circle>
    <circle r="1" cx="398" cy="365"></circle>
    <circle r="1" cx="405" cy="365"></circle>
    <circle r="1" cx="412" cy="367"></circle>
    <circle r="1" cx="419" cy="370"></circle>
    <circle r="1" cx="424" cy="374"></circle>
    <circle r="1" cx="429" cy="379"></circle>
    <circle r="1" cx="433" cy="385"></circle>
    <circle r="1" cx="435" cy="392"></circle>
    <circle r="1" cx="436" cy="399"></circle>
    <circle r="1" cx="436" cy="407"></circle>
    <circle r="1" cx="434" cy="414"></circle>
    <circle r="1" cx="431" cy="420"></circle>
    <circle r="1" cx="426" cy="426"></circle>
    <circle r="1" cx="421" cy="431"></circle>
    <circle r="1" cx="414" cy="435"></circle>
    <circle r="1" cx="407" cy="437"></circle>
    <circle r="1" cx="399" cy="438"></circle>
    <circle r="1" cx="392" cy="437"></circle>
    <circle r="1" cx="385" cy="435"></circle>
    <circle r="1" cx="378" cy="432"></circle>
    <circle r="1" cx="372" cy="427"></circle>
    <circle r="1" cx="367" cy="421"></circle>
    <circle r="1" cx="363" cy="414"></circle>
    <circle r="1" cx="361" cy="406"></circle>
    <circle r="1" cx="360" cy="398"></circle>
    <circle r="1" cx="361" cy="390"></circle>
    <circle r="1" cx="364" cy="383"></circle>
    <circle r="1" cx="368" cy="376"></circle>
    <circle r="1" cx="373" cy="370"></circle>
    <circle r="1" cx="380" cy="365"></circle>
    <circle r="1" cx="387" cy="361"></circle>
    <circle r="1" cx="395" cy="359"></circle>
    <circle r="1" cx="403" cy="359"></circle>
    <circle r="1" cx="411" cy="360"></circle>
    <circle r="1" cx="419" cy="363"></circle>
    <circle r="1" cx="426" cy="367"></circle>
    <circle r="1" cx="432" cy="373"></circle>
    <circle r="1" cx="437" cy="380"></circle>
    <circle r="1" cx="441" cy="388"></circle>
    <circle r="1" cx="442" cy="396"></circle>
    <circle r="1" cx="443" cy="404"></circle>
    <circle r="1" cx="441" cy="413"></circle>
    <circle r="1" cx="438" cy="421"></circle>
    <circle r="1" cx="433" cy="428"></circle>
    <circle r="1" cx="427" cy="434"></circle>
    <circle r="1" cx="420" cy="439"></circle>
    <circle r="1" cx="412" cy="442"></circle>
    <circle r="1" cx="403" cy="444"></circle>
    <circle r="1" cx="394" cy="444"></circle>
    <circle r="1" cx="386" cy="442"></circle>
    <circle r="1" cx="377" cy="439"></circle>
    <circle r="1" cx="370" cy="434"></circle>
    <circle r="1" cx="364" cy="427"></circle>
    <circle r="1" cx="359" cy="419"></circle>
    <circle r="1" cx="356" cy="411"></circle>
    <circle r="1" cx="354" cy="402"></circle>
    <circle r="1" cx="355" cy="393"></circle>
    <circle r="1" cx="357" cy="384"></circle>
    <circle r="1" cx="361" cy="375"></circle>
    <circle r="1" cx="366" cy="368"></circle>
    <circle r="1" cx="373" cy="362"></circle>
    <circle r="1" cx="381" cy="357"></circle>
    <circle r="1" cx="390" cy="354"></circle>
    <circle r="1" cx="399" cy="353"></circle>
    <circle r="1" cx="409" cy="353"></circle>
    <circle r="1" cx="418" cy="356"></circle>
    <circle r="1" cx="427" cy="360"></circle>
    <circle r="1" cx="434" cy="366"></circle>
    <circle r="1" cx="440" cy="373"></circle>
    <circle r="1" cx="445" cy="382"></circle>
    <circle r="1" cx="448" cy="391"></circle>
    <circle r="1" cx="449" cy="401"></circle>
    <circle r="1" cx="448" cy="411"></circle>
    <circle r="1" cx="445" cy="420"></circle>
    <circle r="1" cx="440" cy="429"></circle>
    <circle r="1" cx="434" cy="436"></circle>
    <circle r="1" cx="426" cy="443"></circle>
    <circle r="1" cx="417" cy="447"></circle>
    <circle r="1" cx="408" cy="450"></circle>
    <circle r="1" cx="398" cy="451"></circle>
    <circle r="1" cx="388" cy="449"></circle>
    <circle r="1" cx="378" cy="446"></circle>
    <circle r="1" cx="369" cy="441"></circle>
    <circle r="1" cx="361" cy="434"></circle>
    <circle r="1" cx="355" cy="426"></circle>
    <circle r="1" cx="351" cy="416"></circle>
    <circle r="1" cx="348" cy="406"></circle>
    <circle r="1" cx="348" cy="396"></circle>
    <circle r="1" cx="350" cy="386"></circle>
    <circle r="1" cx="353" cy="376"></circle>
    <circle r="1" cx="359" cy="367"></circle>
    <circle r="1" cx="366" cy="359"></circle>
    <circle r="1" cx="375" cy="353"></circle>
    <circle r="1" cx="384" cy="349"></circle>
    <circle r="1" cx="395" cy="347"></circle>
    <circle r="1" cx="406" cy="346"></circle>
    <circle r="1" cx="416" cy="348"></circle>
    <circle r="1" cx="426" cy="353"></circle>
    <circle r="1" cx="435" cy="359"></circle>
    <circle r="1" cx="443" cy="366"></circle>
    <circle r="1" cx="449" cy="375"></circle>
    <circle r="1" cx="453" cy="386"></circle>
    <circle r="1" cx="455" cy="396"></circle>
    <circle r="1" cx="455" cy="407"></circle>
    <circle r="1" cx="453" cy="418"></circle>
    <circle r="1" cx="448" cy="428"></circle>
    <circle r="1" cx="442" cy="438"></circle>
    <circle r="1.5" cx="433" cy="445"></circle>
    <circle r="1.5" cx="424" cy="451"></circle>
    <circle r="1.5" cx="413" cy="455"></circle>
    <circle r="1.5" cx="402" cy="457"></circle>
    <circle r="1.5" cx="391" cy="456"></circle>
    <circle r="1.5" cx="380" cy="453"></circle>
    <circle r="1.5" cx="369" cy="449"></circle>
    <circle r="1.5" cx="360" cy="442"></circle>
    <circle r="1.5" cx="353" cy="433"></circle>
    <circle r="1.5" cx="347" cy="423"></circle>
    <circle r="1.5" cx="343" cy="412"></circle>
    <circle r="1.5" cx="342" cy="400"></circle>
    <circle r="1.5" cx="342" cy="389"></circle>
    <circle r="1.5" cx="346" cy="377"></circle>
    <circle r="1.5" cx="351" cy="367"></circle>
    <circle r="1.5" cx="358" cy="358"></circle>
    <circle r="1.5" cx="368" cy="350"></circle>
    <circle r="1.5" cx="378" cy="345"></circle>
    <circle r="1.5" cx="389" cy="341"></circle>
    <circle r="1.5" cx="401" cy="340"></circle>
    <circle r="1.5" cx="413" cy="341"></circle>
    <circle r="1.5" cx="425" cy="345"></circle>
    <circle r="1.5" cx="435" cy="351"></circle>
    <circle r="1.5" cx="445" cy="359"></circle>
    <circle r="1.5" cx="452" cy="368"></circle>
    <circle r="1.5" cx="458" cy="379"></circle>
    <circle r="1.5" cx="461" cy="391"></circle>
    <circle r="1.5" cx="462" cy="403"></circle>
    <circle r="1.5" cx="460" cy="415"></circle>
    <circle r="1.5" cx="456" cy="427"></circle>
    <circle r="1.5" cx="449" cy="438"></circle>
    <circle r="1.5" cx="441" cy="447"></circle>
    <circle r="1.5" cx="431" cy="454"></circle>
    <circle r="1.5" cx="420" cy="460"></circle>
    <circle r="1.5" cx="408" cy="463"></circle>
    <circle r="1.5" cx="395" cy="463"></circle>
    <circle r="1.5" cx="382" cy="461"></circle>
    <circle r="1.5" cx="371" cy="456"></circle>
    <circle r="1.5" cx="360" cy="450"></circle>
    <circle r="1.5" cx="351" cy="441"></circle>
    <circle r="1.5" cx="343" cy="430"></circle>
    <circle r="1.5" cx="338" cy="418"></circle>
    <circle r="1.5" cx="336" cy="406"></circle>
    <circle r="1.5" cx="336" cy="393"></circle>
    <circle r="1.5" cx="338" cy="380"></circle>
    <circle r="1.5" cx="343" cy="368"></circle>
    <circle r="1.5" cx="350" cy="357"></circle>
    <circle r="1.5" cx="360" cy="348"></circle>
    <circle r="1.5" cx="371" cy="341"></circle>
    <circle r="1.5" cx="383" cy="336"></circle>
    <circle r="1.5" cx="396" cy="334"></circle>
    <circle r="1.5" cx="409" cy="334"></circle>
    <circle r="1.5" cx="422" cy="337"></circle>
    <circle r="1.5" cx="434" cy="343"></circle>
    <circle r="1.5" cx="445" cy="350"></circle>
    <circle r="1.5" cx="454" cy="360"></circle>
    <circle r="1.5" cx="461" cy="372"></circle>
    <circle r="1.5" cx="466" cy="384"></circle>
    <circle r="1.5" cx="468" cy="398"></circle>
    <circle r="1.5" cx="467" cy="411"></circle>
    <circle r="1.5" cx="464" cy="425"></circle>
    <circle r="1.5" cx="458" cy="437"></circle>
    <circle r="1.5" cx="449" cy="448"></circle>
    <circle r="1.5" cx="439" cy="457"></circle>
    <circle r="1.5" cx="427" cy="463"></circle>
    <circle r="1.5" cx="414" cy="468"></circle>
    <circle r="1.5" cx="400" cy="469"></circle>
    <circle r="1.5" cx="386" cy="468"></circle>
    <circle r="1.5" cx="373" cy="464"></circle>
    <circle r="1.5" cx="361" cy="458"></circle>
    <circle r="1.5" cx="350" cy="449"></circle>
    <circle r="1.5" cx="341" cy="438"></circle>
    <circle r="1.5" cx="334" cy="426"></circle>
    <circle r="1.5" cx="330" cy="412"></circle>
    <circle r="1.5" cx="329" cy="398"></circle>
    <circle r="1.5" cx="331" cy="384"></circle>
    <circle r="1.5" cx="335" cy="370"></circle>
    <circle r="1.5" cx="342" cy="358"></circle>
    <circle r="1.5" cx="351" cy="347"></circle>
    <circle r="1.5" cx="363" cy="338"></circle>
    <circle r="1.5" cx="376" cy="332"></circle>
    <circle r="1.5" cx="390" cy="328"></circle>
    <circle r="1.5" cx="404" cy="328"></circle>
    <circle r="1.5" cx="418" cy="330"></circle>
    <circle r="1.5" cx="432" cy="334"></circle>
    <circle r="1.5" cx="445" cy="342"></circle>
    <circle r="1.5" cx="455" cy="352"></circle>
    <circle r="1.5" cx="464" cy="364"></circle>
    <circle r="1.5" cx="470" cy="377"></circle>
    <circle r="1.5" cx="474" cy="392"></circle>
    <circle r="1.5" cx="474" cy="406"></circle>
    <circle r="1.5" cx="471" cy="421"></circle>
    <circle r="1.5" cx="466" cy="435"></circle>
    <circle r="1.5" cx="458" cy="447"></circle>
    <circle r="1.5" cx="447" cy="458"></circle>
    <circle r="1.5" cx="435" cy="466"></circle>
    <circle r="1.5" cx="421" cy="472"></circle>
    <circle r="1.5" cx="406" cy="475"></circle>
    <circle r="1.5" cx="391" cy="475"></circle>
    <circle r="1.5" cx="377" cy="472"></circle>
    <circle r="1.5" cx="363" cy="466"></circle>
    <circle r="1.5" cx="350" cy="458"></circle>
    <circle r="1.5" cx="339" cy="447"></circle>
    <circle r="1.5" cx="331" cy="434"></circle>
    <circle r="1.5" cx="326" cy="420"></circle>
    <circle r="1.5" cx="323" cy="404"></circle>
    <circle r="1.5" cx="323" cy="389"></circle>
    <circle r="1.5" cx="327" cy="374"></circle>
    <circle r="1.5" cx="333" cy="360"></circle>
    <circle r="1.5" cx="343" cy="347"></circle>
    <circle r="1.5" cx="354" cy="337"></circle>
    <circle r="1.5" cx="368" cy="329"></circle>
    <circle r="1.5" cx="382" cy="323"></circle>
    <circle r="1.5" cx="398" cy="321"></circle>
    <circle r="1.5" cx="414" cy="322"></circle>
    <circle r="1.5" cx="429" cy="326"></circle>
    <circle r="1.5" cx="443" cy="333"></circle>
    <circle r="1.5" cx="456" cy="343"></circle>
    <circle r="1.5" cx="466" cy="355"></circle>
    <circle r="1.5" cx="474" cy="369"></circle>
    <circle r="1.5" cx="479" cy="384"></circle>
    <circle r="1.5" cx="480" cy="400"></circle>
    <circle r="1.5" cx="479" cy="416"></circle>
    <circle r="1.5" cx="474" cy="432"></circle>
    <circle r="1.5" cx="467" cy="446"></circle>
    <circle r="1.5" cx="456" cy="458"></circle>
    <circle r="1.5" cx="444" cy="469"></circle>
    <circle r="1.5" cx="429" cy="476"></circle>
    <circle r="1.5" cx="414" cy="481"></circle>
    <circle r="1.5" cx="397" cy="482"></circle>
    <circle r="1.5" cx="381" cy="480"></circle>
    <circle r="1.5" cx="366" cy="475"></circle>
    <circle r="1.5" cx="351" cy="467"></circle>
    <circle r="1.5" cx="339" cy="456"></circle>
    <circle r="1.5" cx="329" cy="443"></circle>
    <circle r="1.5" cx="322" cy="428"></circle>
    <circle r="1.5" cx="317" cy="412"></circle>
    <circle r="1.5" cx="317" cy="395"></circle>
    <circle r="1.5" cx="319" cy="378"></circle>
    <circle r="1.5" cx="325" cy="363"></circle>
    <circle r="1.5" cx="333" cy="348"></circle>
    <circle r="1.5" cx="345" cy="336"></circle>
    <circle r="1.5" cx="359" cy="326"></circle>
    <circle r="1.5" cx="374" cy="319"></circle>
    <circle r="1.5" cx="391" cy="316"></circle>
    <circle r="1.5" cx="408" cy="315"></circle>
    <circle r="1.5" cx="424" cy="318"></circle>
    <circle r="1.5" cx="440" cy="324"></circle>
    <circle r="1.5" cx="455" cy="334"></circle>
    <circle r="1.5" cx="467" cy="346"></circle>
    <circle r="1.5" cx="476" cy="360"></circle>
    <circle r="1.5" cx="483" cy="376"></circle>
    <circle r="1.5" cx="486" cy="393"></circle>
    <circle r="1.5" cx="486" cy="410"></circle>
    <circle r="1.5" cx="483" cy="427"></circle>
    <circle r="1.5" cx="476" cy="443"></circle>
    <circle r="1.5" cx="466" cy="458"></circle>
    <circle r="1.5" cx="453" cy="470"></circle>
    <circle r="1.5" cx="438" cy="479"></circle>
    <circle r="1.5" cx="422" cy="485"></circle>
    <circle r="1.5" cx="405" cy="488"></circle>
    <circle r="1.5" cx="387" cy="487"></circle>
    <circle r="1.5" cx="370" cy="483"></circle>
    <circle r="1.5" cx="354" cy="476"></circle>
    <circle r="1.5" cx="339" cy="465"></circle>
    <circle r="1.5" cx="328" cy="452"></circle>
    <circle r="1.5" cx="318" cy="437"></circle>
    <circle r="1.5" cx="313" cy="420"></circle>
    <circle r="1.5" cx="310" cy="402"></circle>
    <circle r="1.5" cx="311" cy="384"></circle>
    <circle r="1.5" cx="316" cy="367"></circle>
    <circle r="2" cx="324" cy="351"></circle>
    <circle r="2" cx="335" cy="336"></circle>
    <circle r="2" cx="349" cy="325"></circle>
    <circle r="2" cx="365" cy="316"></circle>
    <circle r="2" cx="382" cy="311"></circle>
    <circle r="2" cx="401" cy="309"></circle>
    <circle r="2" cx="419" cy="310"></circle>
    <circle r="2" cx="436" cy="316"></circle>
    <circle r="2" cx="452" cy="324"></circle>
    <circle r="2" cx="467" cy="336"></circle>
    <circle r="2" cx="478" cy="351"></circle>
    <circle r="2" cx="487" cy="367"></circle>
    <circle r="2" cx="492" cy="385"></circle>
    <circle r="2" cx="493" cy="403"></circle>
    <circle r="2" cx="491" cy="422"></circle>
    <circle r="2" cx="485" cy="439"></circle>
    <circle r="2" cx="475" cy="456"></circle>
    <circle r="2" cx="463" cy="470"></circle>
    <circle r="2" cx="448" cy="481"></circle>
    <circle r="2" cx="431" cy="489"></circle>
    <circle r="2" cx="413" cy="494"></circle>
    <circle r="2" cx="394" cy="494"></circle>
    <circle r="2" cx="375" cy="492"></circle>
    <circle r="2" cx="357" cy="485"></circle>
    <circle r="2" cx="341" cy="475"></circle>
    <circle r="2" cx="327" cy="462"></circle>
    <circle r="2" cx="316" cy="446"></circle>
    <circle r="2" cx="309" cy="429"></circle>
    <circle r="2" cx="305" cy="410"></circle>
    <circle r="2" cx="304" cy="391"></circle>
    <circle r="2" cx="308" cy="372"></circle>
    <circle r="2" cx="315" cy="354"></circle>
    <circle r="2" cx="326" cy="338"></circle>
    <circle r="2" cx="339" cy="324"></circle>
    <circle r="2" cx="355" cy="314"></circle>
    <circle r="2" cx="373" cy="306"></circle>
    <circle r="2" cx="392" cy="303"></circle>
    <circle r="2" cx="412" cy="303"></circle>
    <circle r="2" cx="431" cy="307"></circle>
    <circle r="2" cx="449" cy="315"></circle>
    <circle r="2" cx="465" cy="326"></circle>
    <circle r="2" cx="479" cy="341"></circle>
    <circle r="2" cx="489" cy="357"></circle>
    <circle r="2" cx="496" cy="376"></circle>
    <circle r="2" cx="499" cy="395"></circle>
    <circle r="2" cx="498" cy="415"></circle>
    <circle r="2" cx="493" cy="434"></circle>
    <circle r="2" cx="485" cy="452"></circle>
    <circle r="2" cx="473" cy="468"></circle>
    <circle r="2" cx="458" cy="482"></circle>
    <circle r="2" cx="441" cy="492"></circle>
    <circle r="2" cx="422" cy="498"></circle>
    <circle r="2" cx="402" cy="501"></circle>
    <circle r="2" cx="382" cy="499"></circle>
    <circle r="2" cx="362" cy="494"></circle>
    <circle r="2" cx="344" cy="485"></circle>
    <circle r="2" cx="328" cy="472"></circle>
    <circle r="2" cx="315" cy="457"></circle>
    <circle r="2" cx="306" cy="439"></circle>
    <circle r="2" cx="300" cy="419"></circle>
    <circle r="2" cx="298" cy="399"></circle>
    <circle r="2" cx="300" cy="379"></circle>
    <circle r="2" cx="306" cy="359"></circle>
    <circle r="2" cx="316" cy="341"></circle>
    <circle r="2" cx="329" cy="325"></circle>
    <circle r="2" cx="345" cy="312"></circle>
    <circle r="2" cx="363" cy="303"></circle>
    <circle r="2" cx="383" cy="298"></circle>
    <circle r="2" cx="404" cy="296"></circle>
    <circle r="2" cx="425" cy="299"></circle>
    <circle r="2" cx="444" cy="306"></circle>
    <circle r="2" cx="462" cy="316"></circle>
    <circle r="2" cx="478" cy="330"></circle>
    <circle r="2" cx="491" cy="347"></circle>
    <circle r="2" cx="499" cy="366"></circle>
    <circle r="2" cx="504" cy="386"></circle>
    <circle r="2" cx="505" cy="407"></circle>
    <circle r="2" cx="502" cy="428"></circle>
    <circle r="2" cx="495" cy="448"></circle>
    <circle r="2" cx="483" cy="466"></circle>
    <circle r="2" cx="469" cy="481"></circle>
    <circle r="2" cx="451" cy="493"></circle>
    <circle r="2" cx="432" cy="502"></circle>
    <circle r="2" cx="411" cy="506"></circle>
    <circle r="2" cx="389" cy="507"></circle>
    <circle r="2" cx="368" cy="503"></circle>
    <circle r="2" cx="349" cy="495"></circle>
    <circle r="2" cx="331" cy="483"></circle>
    <circle r="2" cx="316" cy="467"></circle>
    <circle r="2" cx="304" cy="449"></circle>
    <circle r="2" cx="296" cy="429"></circle>
    <circle r="2" cx="292" cy="408"></circle>
    <circle r="2" cx="292" cy="386"></circle>
    <circle r="2" cx="297" cy="365"></circle>
    <circle r="2" cx="306" cy="345"></circle>
    <circle r="2" cx="318" cy="327"></circle>
    <circle r="2" cx="334" cy="312"></circle>
    <circle r="2" cx="353" cy="301"></circle>
    <circle r="2" cx="373" cy="293"></circle>
    <circle r="2" cx="395" cy="290"></circle>
    <circle r="2" cx="417" cy="291"></circle>
    <circle r="2" cx="439" cy="296"></circle>
    <circle r="2" cx="459" cy="306"></circle>
    <circle r="2" cx="476" cy="319"></circle>
    <circle r="2" cx="491" cy="336"></circle>
    <circle r="2" cx="502" cy="355"></circle>
    <circle r="2" cx="509" cy="376"></circle>
    <circle r="2" cx="512" cy="398"></circle>
    <circle r="2" cx="510" cy="421"></circle>
    <circle r="2" cx="504" cy="442"></circle>
    <circle r="2" cx="494" cy="462"></circle>
    <circle r="2" cx="480" cy="480"></circle>
    <circle r="2" cx="462" cy="494"></circle>
    <circle r="2" cx="442" cy="505"></circle>
    <circle r="2" cx="421" cy="511"></circle>
    <circle r="2" cx="398" cy="513"></circle>
    <circle r="2" cx="376" cy="511"></circle>
    <circle r="2" cx="354" cy="504"></circle>
    <circle r="2" cx="334" cy="493"></circle>
    <circle r="2" cx="317" cy="478"></circle>
    <circle r="2" cx="303" cy="460"></circle>
    <circle r="2" cx="293" cy="440"></circle>
    <circle r="2" cx="287" cy="418"></circle>
    <circle r="2" cx="285" cy="395"></circle>
    <circle r="2" cx="288" cy="372"></circle>
    <circle r="2" cx="296" cy="350"></circle>
    <circle r="2" cx="308" cy="331"></circle>
    <circle r="2" cx="323" cy="313"></circle>
    <circle r="2" cx="342" cy="300"></circle>
    <circle r="2" cx="363" cy="290"></circle>
    <circle r="2" cx="385" cy="285"></circle>
    <circle r="2" cx="409" cy="284"></circle>
    <circle r="2" cx="432" cy="288"></circle>
    <circle r="2" cx="453" cy="296"></circle>
    <circle r="2" cx="473" cy="308"></circle>
    <circle r="2" cx="490" cy="325"></circle>
    <circle r="2" cx="503" cy="344"></circle>
    <circle r="2" cx="513" cy="365"></circle>
    <circle r="2" cx="517" cy="389"></circle>
    <circle r="2" cx="518" cy="412"></circle>
    <circle r="2" cx="513" cy="435"></circle>
    <circle r="2" cx="504" cy="457"></circle>
    <circle r="2" cx="491" cy="477"></circle>
    <circle r="2" cx="474" cy="493"></circle>
    <circle r="2" cx="454" cy="506"></circle>
    <circle r="2" cx="432" cy="515"></circle>
    <circle r="2" cx="408" cy="519"></circle>
    <circle r="2" cx="384" cy="519"></circle>
    <circle r="2" cx="361" cy="513"></circle>
    <circle r="2" cx="339" cy="504"></circle>
    <circle r="2" cx="320" cy="490"></circle>
    <circle r="2" cx="303" cy="472"></circle>
    <circle r="2" cx="291" cy="451"></circle>
    <circle r="2" cx="282" cy="429"></circle>
    <circle r="2" cx="279" cy="405"></circle>
    <circle r="2" cx="280" cy="381"></circle>
    <circle r="2" cx="286" cy="357"></circle>
    <circle r="2" cx="297" cy="335"></circle>
    <circle r="2" cx="312" cy="316"></circle>
    <circle r="2" cx="330" cy="300"></circle>
    <circle r="2" cx="351" cy="288"></circle>
    <circle r="2" cx="374" cy="280"></circle>
    <circle r="2" cx="399" cy="277"></circle>
    <circle r="2" cx="423" cy="279"></circle>
    <circle r="2" cx="447" cy="286"></circle>
    <circle r="2" cx="469" cy="297"></circle>
    <circle r="2" cx="488" cy="313"></circle>
    <circle r="2" cx="504" cy="332"></circle>
    <circle r="2" cx="515" cy="354"></circle>
    <circle r="2" cx="522" cy="378"></circle>
    <circle r="2" cx="524" cy="402"></circle>
    <circle r="2.5" cx="522" cy="427"></circle>
    <circle r="2.5" cx="514" cy="451"></circle>
    <circle r="2.5" cx="502" cy="473"></circle>
    <circle r="2.5" cx="485" cy="491"></circle>
    <circle r="2.5" cx="466" cy="507"></circle>
    <circle r="2.5" cx="443" cy="518"></circle>
    <circle r="2.5" cx="419" cy="524"></circle>
    <circle r="2.5" cx="394" cy="526"></circle>
    <circle r="2.5" cx="369" cy="522"></circle>
    <circle r="2.5" cx="345" cy="514"></circle>
    <circle r="2.5" cx="324" cy="501"></circle>
    <circle r="2.5" cx="305" cy="484"></circle>
    <circle r="2.5" cx="290" cy="463"></circle>
    <circle r="2.5" cx="279" cy="440"></circle>
    <circle r="2.5" cx="274" cy="416"></circle>
    <circle r="2.5" cx="273" cy="390"></circle>
    <circle r="2.5" cx="277" cy="365"></circle>
    <circle r="2.5" cx="286" cy="341"></circle>
    <circle r="2.5" cx="300" cy="320"></circle>
    <circle r="2.5" cx="318" cy="301"></circle>
    <circle r="2.5" cx="339" cy="287"></circle>
    <circle r="2.5" cx="363" cy="277"></circle>
    <circle r="2.5" cx="388" cy="272"></circle>
    <circle r="2.5" cx="414" cy="272"></circle>
    <circle r="2.5" cx="439" cy="277"></circle>
    <circle r="2.5" cx="463" cy="287"></circle>
    <circle r="2.5" cx="484" cy="301"></circle>
    <circle r="2.5" cx="502" cy="320"></circle>
    <circle r="2.5" cx="516" cy="342"></circle>
    <circle r="2.5" cx="526" cy="366"></circle>
    <circle r="2.5" cx="530" cy="392"></circle>
    <circle r="2.5" cx="530" cy="418"></circle>
    <circle r="2.5" cx="524" cy="443"></circle>
    <circle r="2.5" cx="513" cy="467"></circle>
    <circle r="2.5" cx="497" cy="488"></circle>
    <circle r="2.5" cx="478" cy="506"></circle>
    <circle r="2.5" cx="455" cy="520"></circle>
    <circle r="2.5" cx="431" cy="528"></circle>
    <circle r="2.5" cx="405" cy="532"></circle>
    <circle r="2.5" cx="378" cy="531"></circle>
    <circle r="2.5" cx="353" cy="524"></circle>
    <circle r="2.5" cx="329" cy="512"></circle>
    <circle r="2.5" cx="308" cy="496"></circle>
    <circle r="2.5" cx="290" cy="476"></circle>
    <circle r="2.5" cx="277" cy="453"></circle>
    <circle r="2.5" cx="269" cy="427"></circle>
    <circle r="2.5" cx="266" cy="401"></circle>
    <circle r="2.5" cx="269" cy="374"></circle>
    <circle r="2.5" cx="276" cy="348"></circle>
    <circle r="2.5" cx="289" cy="325"></circle>
    <circle r="2.5" cx="306" cy="304"></circle>
    <circle r="2.5" cx="327" cy="287"></circle>
    <circle r="2.5" cx="350" cy="274"></circle>
    <circle r="2.5" cx="376" cy="267"></circle>
    <circle r="2.5" cx="403" cy="265"></circle>
    <circle r="2.5" cx="430" cy="268"></circle>
    <circle r="2.5" cx="456" cy="276"></circle>
    <circle r="2.5" cx="479" cy="290"></circle>
    <circle r="2.5" cx="500" cy="307"></circle>
    <circle r="2.5" cx="517" cy="329"></circle>
    <circle r="2.5" cx="528" cy="354"></circle>
    <circle r="2.5" cx="535" cy="380"></circle>
    <circle r="2.5" cx="537" cy="407"></circle>
    <circle r="2.5" cx="533" cy="434"></circle>
    <circle r="2.5" cx="524" cy="460"></circle>
    <circle r="2.5" cx="509" cy="484"></circle>
    <circle r="2.5" cx="491" cy="504"></circle>
    <circle r="2.5" cx="468" cy="520"></circle>
    <circle r="2.5" cx="443" cy="531"></circle>
    <circle r="2.5" cx="416" cy="537"></circle>
    <circle r="2.5" cx="389" cy="538"></circle>
    <circle r="2.5" cx="361" cy="533"></circle>
    <circle r="2.5" cx="336" cy="523"></circle>
    <circle r="2.5" cx="312" cy="508"></circle>
    <circle r="2.5" cx="292" cy="489"></circle>
    <circle r="2.5" cx="277" cy="466"></circle>
    <circle r="2.5" cx="266" cy="440"></circle>
    <circle r="2.5" cx="261" cy="412"></circle>
    <circle r="2.5" cx="261" cy="384"></circle>
    <circle r="2.5" cx="266" cy="357"></circle>
    <circle r="2.5" cx="277" cy="331"></circle>
    <circle r="2.5" cx="293" cy="308"></circle>
    <circle r="2.5" cx="314" cy="289"></circle>
    <circle r="2.5" cx="337" cy="273"></circle>
    <circle r="2.5" cx="364" cy="263"></circle>
    <circle r="2.5" cx="392" cy="259"></circle>
    <circle r="2.5" cx="420" cy="260"></circle>
    <circle r="2.5" cx="447" cy="266"></circle>
    <circle r="2.5" cx="473" cy="278"></circle>
    <circle r="2.5" cx="496" cy="295"></circle>
    <circle r="2.5" cx="515" cy="316"></circle>
    <circle r="2.5" cx="530" cy="340"></circle>
    <circle r="2.5" cx="539" cy="367"></circle>
    <circle r="2.5" cx="543" cy="396"></circle>
    <circle r="2.5" cx="541" cy="424"></circle>
    <circle r="2.5" cx="534" cy="452"></circle>
    <circle r="2.5" cx="521" cy="478"></circle>
    <circle r="2.5" cx="503" cy="500"></circle>
    <circle r="2.5" cx="482" cy="519"></circle>
    <circle r="2.5" cx="456" cy="533"></circle>
    <circle r="2.5" cx="429" cy="542"></circle>
    <circle r="2.5" cx="400" cy="545"></circle>
    <circle r="2.5" cx="371" cy="542"></circle>
    <circle r="2.5" cx="344" cy="534"></circle>
    <circle r="2.5" cx="318" cy="520"></circle>
    <circle r="2.5" cx="296" cy="502"></circle>
    <circle r="2.5" cx="277" cy="479"></circle>
    <circle r="2.5" cx="264" cy="453"></circle>
    <circle r="2.5" cx="256" cy="425"></circle>
    <circle r="2.5" cx="254" cy="396"></circle>
    <circle r="2.5" cx="257" cy="367"></circle>
    <circle r="2.5" cx="266" cy="339"></circle>
    <circle r="2.5" cx="281" cy="314"></circle>
    <circle r="2.5" cx="300" cy="292"></circle>
    <circle r="2.5" cx="324" cy="274"></circle>
    <circle r="2.5" cx="350" cy="261"></circle>
    <circle r="2.5" cx="379" cy="254"></circle>
    <circle r="2.5" cx="409" cy="252"></circle>
    <circle r="2.5" cx="438" cy="257"></circle>
    <circle r="2.5" cx="466" cy="267"></circle>
    <circle r="2.5" cx="491" cy="282"></circle>
    <circle r="2.5" cx="513" cy="303"></circle>
    <circle r="2.5" cx="530" cy="327"></circle>
    <circle r="2.5" cx="542" cy="354"></circle>
    <circle r="2.5" cx="548" cy="383"></circle>
    <circle r="2.5" cx="549" cy="413"></circle>
    <circle r="2.5" cx="544" cy="442"></circle>
    <circle r="2.5" cx="533" cy="470"></circle>
    <circle r="2.5" cx="516" cy="495"></circle>
    <circle r="2.5" cx="495" cy="517"></circle>
    <circle r="2.5" cx="470" cy="533"></circle>
    <circle r="2.5" cx="442" cy="545"></circle>
    <circle r="2.5" cx="413" cy="550"></circle>
    <circle r="2.5" cx="383" cy="550"></circle>
    <circle r="2.5" cx="353" cy="544"></circle>
    <circle r="2.5" cx="325" cy="532"></circle>
    <circle r="2.5" cx="300" cy="515"></circle>
    <circle r="2.5" cx="279" cy="493"></circle>
    <circle r="2.5" cx="263" cy="467"></circle>
    <circle r="2.5" cx="253" cy="438"></circle>
    <circle r="2.5" cx="248" cy="408"></circle>
    <circle r="2.5" cx="249" cy="378"></circle>
    <circle r="2.5" cx="256" cy="348"></circle>
    <circle r="2.5" cx="269" cy="321"></circle>
    <circle r="2.5" cx="287" cy="296"></circle>
    <circle r="2.5" cx="310" cy="275"></circle>
    <circle r="2.5" cx="336" cy="260"></circle>
    <circle r="2.5" cx="366" cy="250"></circle>
    <circle r="2.5" cx="396" cy="246"></circle>
    <circle r="2.5" cx="427" cy="248"></circle>
    <circle r="2.5" cx="457" cy="256"></circle>
    <circle r="2.5" cx="484" cy="270"></circle>
    <circle r="2.5" cx="508" cy="289"></circle>
    <circle r="2.5" cx="528" cy="313"></circle>
    <circle r="2.5" cx="543" cy="340"></circle>
    <circle r="2.5" cx="553" cy="370"></circle>
    <circle r="2.5" cx="556" cy="401"></circle>
    <circle r="2.5" cx="553" cy="432"></circle>
    <circle r="2.5" cx="544" cy="461"></circle>
    <circle r="2.5" cx="529" cy="489"></circle>
    <circle r="2.5" cx="509" cy="513"></circle>
    <circle r="2.5" cx="484" cy="532"></circle>
    <circle r="2.5" cx="456" cy="547"></circle>
    <circle r="2.5" cx="426" cy="555"></circle>
    <circle r="2.5" cx="395" cy="557"></circle>
    <circle r="2.5" cx="364" cy="553"></circle>
    <circle r="2.5" cx="334" cy="543"></circle>
    <circle r="2.5" cx="307" cy="527"></circle>
    <circle r="2.5" cx="283" cy="506"></circle>
    <circle r="2.5" cx="264" cy="481"></circle>
    <circle r="3" cx="250" cy="453"></circle>
    <circle r="3" cx="243" cy="422"></circle>
    <circle r="3" cx="241" cy="390"></circle>
    <circle r="3" cx="246" cy="359"></circle>
    <circle r="3" cx="257" cy="329"></circle>
    <circle r="3" cx="274" cy="302"></circle>
    <circle r="3" cx="296" cy="279"></circle>
    <circle r="3" cx="322" cy="260"></circle>
    <circle r="3" cx="351" cy="247"></circle>
    <circle r="3" cx="383" cy="241"></circle>
    <circle r="3" cx="415" cy="240"></circle>
    <circle r="3" cx="446" cy="246"></circle>
    <circle r="3" cx="476" cy="258"></circle>
    <circle r="3" cx="503" cy="276"></circle>
    <circle r="3" cx="526" cy="299"></circle>
    <circle r="3" cx="543" cy="325"></circle>
    <circle r="3" cx="556" cy="355"></circle>
    <circle r="3" cx="561" cy="387"></circle>
    <circle r="3" cx="561" cy="419"></circle>
    <circle r="3" cx="554" cy="451"></circle>
    <circle r="3" cx="541" cy="481"></circle>
    <circle r="3" cx="522" cy="507"></circle>
    <circle r="3" cx="499" cy="530"></circle>
    <circle r="3" cx="471" cy="547"></circle>
    <circle r="3" cx="440" cy="558"></circle>
    <circle r="3" cx="408" cy="563"></circle>
    <circle r="3" cx="376" cy="562"></circle>
    <circle r="3" cx="344" cy="554"></circle>
    <circle r="3" cx="314" cy="540"></circle>
    <circle r="3" cx="288" cy="520"></circle>
    <circle r="3" cx="266" cy="496"></circle>
    <circle r="3" cx="250" cy="467"></circle>
    <circle r="3" cx="239" cy="436"></circle>
    <circle r="3" cx="235" cy="404"></circle>
    <circle r="3" cx="237" cy="371"></circle>
    <circle r="3" cx="246" cy="339"></circle>
    <circle r="3" cx="261" cy="309"></circle>
    <circle r="3" cx="282" cy="283"></circle>
    <circle r="3" cx="307" cy="262"></circle>
    <circle r="3" cx="336" cy="246"></circle>
    <circle r="3" cx="368" cy="236"></circle>
    <circle r="3" cx="401" cy="233"></circle>
    <circle r="3" cx="434" cy="237"></circle>
    <circle r="3" cx="466" cy="247"></circle>
    <circle r="3" cx="496" cy="263"></circle>
    <circle r="3" cx="521" cy="284"></circle>
    <circle r="3" cx="542" cy="310"></circle>
    <circle r="3" cx="557" cy="340"></circle>
    <circle r="3" cx="566" cy="373"></circle>
    <circle r="3" cx="568" cy="406"></circle>
    <circle r="3" cx="564" cy="440"></circle>
    <circle r="3" cx="553" cy="471"></circle>
    <circle r="3" cx="536" cy="501"></circle>
    <circle r="3" cx="513" cy="526"></circle>
    <circle r="3" cx="486" cy="546"></circle>
    <circle r="3" cx="456" cy="560"></circle>
    <circle r="3" cx="423" cy="568"></circle>
    <circle r="3" cx="389" cy="570"></circle>
    <circle r="3" cx="355" cy="564"></circle>
    <circle r="3" cx="323" cy="552"></circle>
    <circle r="3" cx="295" cy="534"></circle>
    <circle r="3" cx="270" cy="511"></circle>
    <circle r="3" cx="250" cy="483"></circle>
    <circle r="3" cx="237" cy="451"></circle>
    <circle r="3" cx="230" cy="418"></circle>
    <circle r="3" cx="229" cy="384"></circle>
    <circle r="3" cx="236" cy="350"></circle>
    <circle r="3" cx="249" cy="318"></circle>
    <circle r="3" cx="268" cy="290"></circle>
    <circle r="3" cx="292" cy="265"></circle>
    <circle r="3" cx="321" cy="247"></circle>
    <circle r="3" cx="353" cy="234"></circle>
    <circle r="3" cx="387" cy="227"></circle>
    <circle r="3" cx="422" cy="228"></circle>
    <circle r="3" cx="455" cy="236"></circle>
    <circle r="3" cx="487" cy="250"></circle>
    <circle r="3" cx="515" cy="270"></circle>
    <circle r="3" cx="539" cy="295"></circle>
    <circle r="3" cx="557" cy="325"></circle>
    <circle r="3" cx="569" cy="358"></circle>
    <circle r="3" cx="574" cy="392"></circle>
    <circle r="3" cx="573" cy="427"></circle>
    <circle r="3" cx="564" cy="461"></circle>
    <circle r="3" cx="549" cy="492"></circle>
    <circle r="3" cx="528" cy="520"></circle>
    <circle r="3" cx="502" cy="543"></circle>
    <circle r="3" cx="471" cy="561"></circle>
    <circle r="3" cx="438" cy="572"></circle>
    <circle r="3" cx="403" cy="576"></circle>
    <circle r="3" cx="368" cy="573"></circle>
    <circle r="3" cx="334" cy="564"></circle>
    <circle r="3" cx="303" cy="548"></circle>
    <circle r="3" cx="275" cy="525"></circle>
    <circle r="3" cx="253" cy="498"></circle>
    <circle r="3" cx="236" cy="467"></circle>
    <circle r="3" cx="226" cy="433"></circle>
    <circle r="3" cx="222" cy="398"></circle>
    <circle r="3" cx="226" cy="362"></circle>
    <circle r="3" cx="237" cy="329"></circle>
    <circle r="3" cx="254" cy="297"></circle>
    <circle r="3" cx="277" cy="270"></circle>
    <circle r="3" cx="305" cy="248"></circle>
    <circle r="3" cx="337" cy="232"></circle>
    <circle r="3" cx="372" cy="223"></circle>
    <circle r="3" cx="407" cy="221"></circle>
    <circle r="3" cx="443" cy="226"></circle>
    <circle r="3" cx="477" cy="237"></circle>
    <circle r="3" cx="508" cy="256"></circle>
    <circle r="3" cx="534" cy="280"></circle>
    <circle r="3" cx="556" cy="309"></circle>
    <circle r="3" cx="571" cy="342"></circle>
    <circle r="3" cx="579" cy="377"></circle>
    <circle r="3" cx="581" cy="413"></circle>
    <circle r="3" cx="575" cy="448"></circle>
    <circle r="3" cx="562" cy="482"></circle>
    <circle r="3" cx="542" cy="513"></circle>
    <circle r="3" cx="517" cy="539"></circle>
    <circle r="3" cx="487" cy="560"></circle>
    <circle r="3" cx="454" cy="574"></circle>
    <circle r="3" cx="418" cy="581"></circle>
    <circle r="3" cx="382" cy="582"></circle>
    <circle r="3" cx="346" cy="575"></circle>
    <circle r="3" cx="312" cy="561"></circle>
    <circle r="3" cx="282" cy="540"></circle>
    <circle r="3" cx="256" cy="514"></circle>
    <circle r="3" cx="236" cy="483"></circle>
    <circle r="3" cx="223" cy="449"></circle>
    <circle r="3" cx="216" cy="413"></circle>
    <circle r="3" cx="217" cy="376"></circle>
    <circle r="3" cx="226" cy="340"></circle>
    <circle r="3" cx="241" cy="307"></circle>
    <circle r="3" cx="262" cy="277"></circle>
    <circle r="3" cx="289" cy="252"></circle>
    <circle r="3" cx="321" cy="233"></circle>
    <circle r="3" cx="356" cy="220"></circle>
    <circle r="3" cx="392" cy="215"></circle>
    <circle r="3" cx="429" cy="217"></circle>
    <circle r="3" cx="465" cy="226"></circle>
    <circle r="3" cx="499" cy="242"></circle>
    <circle r="3" cx="528" cy="265"></circle>
    <circle r="3" cx="553" cy="293"></circle>
    <circle r="3" cx="571" cy="325"></circle>
    <circle r="3" cx="583" cy="361"></circle>
    <circle r="3" cx="587" cy="398"></circle>
    <circle r="3" cx="584" cy="435"></circle>
    <circle r="3" cx="574" cy="471"></circle>
    <circle r="3" cx="556" cy="504"></circle>
    <circle r="3" cx="533" cy="533"></circle>
    <circle r="3" cx="504" cy="557"></circle>
    <circle r="3" cx="470" cy="575"></circle>
    <circle r="3" cx="434" cy="585"></circle>
    <circle r="3" cx="397" cy="589"></circle>
    <circle r="3" cx="359" cy="585"></circle>
    <circle r="3" cx="323" cy="573"></circle>
    <circle r="3" cx="290" cy="554"></circle>
    <circle r="3" cx="262" cy="530"></circle>
    <circle r="3" cx="239" cy="500"></circle>
    <circle r="3" cx="222" cy="466"></circle>
    <circle r="3" cx="212" cy="429"></circle>
    <circle r="3" cx="210" cy="391"></circle>
    <circle r="3" cx="215" cy="354"></circle>
    <circle r="3" cx="228" cy="318"></circle>
    <circle r="3" cx="247" cy="285"></circle>
    <circle r="3" cx="273" cy="257"></circle>
    <circle r="3" cx="304" cy="234"></circle>
    <circle r="3" cx="339" cy="218"></circle>
    <circle r="3" cx="376" cy="210"></circle>
    <circle r="3" cx="414" cy="209"></circle>
    <circle r="3" cx="452" cy="215"></circle>
    <circle r="3" cx="488" cy="229"></circle>
    <circle r="3" cx="520" cy="250"></circle>
    <circle r="3.5" cx="548" cy="276"></circle>
    <circle r="3.5" cx="570" cy="308"></circle>
    <circle r="3.5" cx="585" cy="344"></circle>
    <circle r="3.5" cx="593" cy="382"></circle>
    <circle r="3.5" cx="593" cy="420"></circle>
    <circle r="3.5" cx="585" cy="458"></circle>
    <circle r="3.5" cx="570" cy="494"></circle>
    <circle r="3.5" cx="548" cy="526"></circle>
    <circle r="3.5" cx="520" cy="553"></circle>
    <circle r="3.5" cx="487" cy="574"></circle>
    <circle r="3.5" cx="451" cy="588"></circle>
    <circle r="3.5" cx="413" cy="595"></circle>
    <circle r="3.5" cx="374" cy="593"></circle>
    <circle r="3.5" cx="336" cy="585"></circle>
    <circle r="3.5" cx="301" cy="568"></circle>
    <circle r="3.5" cx="269" cy="545"></circle>
    <circle r="3.5" cx="242" cy="517"></circle>
    <circle r="3.5" cx="222" cy="483"></circle>
    <circle r="3.5" cx="209" cy="446"></circle>
    <circle r="3.5" cx="204" cy="407"></circle>
    <circle r="3.5" cx="206" cy="368"></circle>
    <circle r="3.5" cx="216" cy="330"></circle>
    <circle r="3.5" cx="233" cy="295"></circle>
    <circle r="3.5" cx="257" cy="264"></circle>
    <circle r="3.5" cx="287" cy="238"></circle>
    <circle r="3.5" cx="322" cy="218"></circle>
    <circle r="3.5" cx="359" cy="206"></circle>
    <circle r="3.5" cx="398" cy="202"></circle>
    <circle r="3.5" cx="438" cy="205"></circle>
    <circle r="3.5" cx="476" cy="216"></circle>
    <circle r="3.5" cx="511" cy="235"></circle>
    <circle r="3.5" cx="542" cy="260"></circle>
    <circle r="3.5" cx="567" cy="291"></circle>
    <circle r="3.5" cx="585" cy="326"></circle>
    <circle r="3.5" cx="596" cy="365"></circle>
    <circle r="3.5" cx="600" cy="404"></circle>
    <circle r="3.5" cx="595" cy="444"></circle>
    <circle r="3.5" cx="583" cy="482"></circle>
    <circle r="3.5" cx="563" cy="517"></circle>
    <circle r="3.5" cx="537" cy="547"></circle>
    <circle r="3.5" cx="505" cy="571"></circle>
    <circle r="3.5" cx="469" cy="589"></circle>
    <circle r="3.5" cx="430" cy="599"></circle>
    <circle r="3.5" cx="390" cy="601"></circle>
    <circle r="3.5" cx="350" cy="595"></circle>
    <circle r="3.5" cx="312" cy="582"></circle>
    <circle r="3.5" cx="278" cy="561"></circle>
    <circle r="3.5" cx="248" cy="533"></circle>
    <circle r="3.5" cx="224" cy="501"></circle>
    <circle r="3.5" cx="208" cy="464"></circle>
    <circle r="3.5" cx="199" cy="424"></circle>
    <circle r="3.5" cx="198" cy="384"></circle>
    <circle r="3.5" cx="205" cy="344"></circle>
    <circle r="3.5" cx="220" cy="306"></circle>
    <circle r="3.5" cx="242" cy="272"></circle>
    <circle r="3.5" cx="270" cy="243"></circle>
    <circle r="3.5" cx="304" cy="220"></circle>
    <circle r="3.5" cx="341" cy="204"></circle>
    <circle r="3.5" cx="381" cy="196"></circle>
    <circle r="3.5" cx="422" cy="197"></circle>
    <circle r="3.5" cx="462" cy="205"></circle>
    <circle r="3.5" cx="500" cy="221"></circle>
    <circle r="3.5" cx="534" cy="244"></circle>
    <circle r="3.5" cx="562" cy="274"></circle>
    <circle r="3.5" cx="584" cy="308"></circle>
    <circle r="3.5" cx="599" cy="347"></circle>
    <circle r="3.5" cx="606" cy="387"></circle>
    <circle r="3.5" cx="604" cy="428"></circle>
    <circle r="3.5" cx="595" cy="468"></circle>
    <circle r="3.5" cx="577" cy="506"></circle>
    <circle r="3.5" cx="553" cy="539"></circle>
    <circle r="3.5" cx="522" cy="567"></circle>
    <circle r="3.5" cx="487" cy="588"></circle>
    <circle r="3.5" cx="448" cy="602"></circle>
    <circle r="3.5" cx="407" cy="607"></circle>
    <circle r="3.5" cx="365" cy="605"></circle>
    <circle r="3.5" cx="325" cy="594"></circle>
    <circle r="3.5" cx="288" cy="576"></circle>
    <circle r="3.5" cx="255" cy="550"></circle>
    <circle r="3.5" cx="228" cy="518"></circle>
    <circle r="3.5" cx="208" cy="482"></circle>
    <circle r="3.5" cx="195" cy="442"></circle>
    <circle r="3.5" cx="191" cy="401"></circle>
    <circle r="3.5" cx="195" cy="359"></circle>
    <circle r="3.5" cx="207" cy="319"></circle>
  </g>
</svg>